<svg width="781" height="1028" viewBox="0 0 781 1028" fill="none" xmlns="http://www.w3.org/2000/svg">
<g clip-path="url(#clip0_346_8)">
<g filter="url(#filter0_d_346_8)">
<path d="M79.929 180.879H26.9062C18.8084 180.877 -19.8788 183.982 -32.3547 183.982C-47.9498 183.982 -66.664 185.409 -60.426 162.976C-64.0568 155.775 -72.9018 141.256 -35.4738 133.207C-47.9498 100.919 -4.28386 94.6669 -8.08995 111.475C-3.24978 105.017 3.30033 100.024 10.8284 97.0562C18.3564 94.088 26.5658 93.2608 34.5393 94.6669C42.5127 96.073 49.936 99.6572 55.9797 105.019C62.0234 110.38 66.4494 117.308 68.763 125.028H79.929C87.3739 125.028 94.5139 127.97 99.7782 133.207C105.043 138.444 108 145.547 108 152.954C108 160.36 105.043 167.463 99.7782 172.7C94.5139 177.937 87.3739 180.879 79.929 180.879Z" fill="#F4F7FF" fill-opacity="0.72" shape-rendering="crispEdges"/>
<path d="M79.929 180.879H26.9062C18.8084 180.877 -19.8788 183.982 -32.3547 183.982C-47.9498 183.982 -66.664 185.409 -60.426 162.976C-64.0568 155.775 -72.9018 141.256 -35.4738 133.207C-47.9498 100.919 -4.28386 94.6669 -8.08995 111.475C-3.24978 105.017 3.30033 100.024 10.8284 97.0562C18.3564 94.088 26.5658 93.2608 34.5393 94.6669C42.5127 96.073 49.936 99.6572 55.9797 105.019C62.0234 110.38 66.4494 117.308 68.763 125.028H79.929C87.3739 125.028 94.5139 127.97 99.7782 133.207C105.043 138.444 108 145.547 108 152.954C108 160.36 105.043 167.463 99.7782 172.7C94.5139 177.937 87.3739 180.879 79.929 180.879Z" stroke="#F4F7FF" stroke-opacity="0.72" stroke-width="2" stroke-linecap="round" stroke-linejoin="round" shape-rendering="crispEdges"/>
</g>
<g filter="url(#filter1_d_346_8)">
<path d="M79.929 694.879H26.9062C18.8084 694.877 -19.8788 697.982 -32.3547 697.982C-47.9498 697.982 -66.664 699.409 -60.426 676.976C-64.0568 669.775 -72.9018 655.256 -35.4738 647.207C-47.9498 614.919 -4.28386 608.667 -8.08995 625.475C-3.24978 619.017 3.30033 614.024 10.8284 611.056C18.3564 608.088 26.5658 607.261 34.5393 608.667C42.5127 610.073 49.936 613.657 55.9797 619.019C62.0234 624.38 66.4494 631.308 68.763 639.028H79.929C87.3739 639.028 94.5139 641.97 99.7782 647.207C105.043 652.444 108 659.547 108 666.954C108 674.36 105.043 681.463 99.7782 686.7C94.5139 691.937 87.3739 694.879 79.929 694.879Z" fill="#F4F7FF" fill-opacity="0.72" shape-rendering="crispEdges"/>
<path d="M79.929 694.879H26.9062C18.8084 694.877 -19.8788 697.982 -32.3547 697.982C-47.9498 697.982 -66.664 699.409 -60.426 676.976C-64.0568 669.775 -72.9018 655.256 -35.4738 647.207C-47.9498 614.919 -4.28386 608.667 -8.08995 625.475C-3.24978 619.017 3.30033 614.024 10.8284 611.056C18.3564 608.088 26.5658 607.261 34.5393 608.667C42.5127 610.073 49.936 613.657 55.9797 619.019C62.0234 624.38 66.4494 631.308 68.763 639.028H79.929C87.3739 639.028 94.5139 641.97 99.7782 647.207C105.043 652.444 108 659.547 108 666.954C108 674.36 105.043 681.463 99.7782 686.7C94.5139 691.937 87.3739 694.879 79.929 694.879Z" stroke="#F4F7FF" stroke-opacity="0.72" stroke-width="2" stroke-linecap="round" stroke-linejoin="round" shape-rendering="crispEdges"/>
</g>
<g filter="url(#filter2_d_346_8)">
<path d="M720.724 88.8097H774.98C783.266 88.8075 822.853 91.9814 835.619 91.9814C851.577 91.9814 870.726 93.4401 864.343 70.5084C868.058 63.1477 877.109 48.3059 838.81 40.0787C851.577 7.07289 806.895 0.681697 810.79 17.8633C805.837 11.2614 799.135 6.15828 791.431 3.12412C783.728 0.0899558 775.328 -0.755677 767.169 0.68171C759.01 2.1191 751.414 5.78288 745.23 11.2636C739.046 16.7444 734.517 23.8262 732.149 31.7177H720.724C713.106 31.7177 705.8 34.7253 700.413 40.0787C695.026 45.4321 692 52.6928 692 60.2637C692 67.8346 695.026 75.0953 700.413 80.4487C705.8 85.8021 713.106 88.8097 720.724 88.8097Z" fill="#F4F7FF" fill-opacity="0.72" shape-rendering="crispEdges"/>
<path d="M720.724 88.8097H774.98C783.266 88.8075 822.853 91.9814 835.619 91.9814C851.577 91.9814 870.726 93.4401 864.343 70.5084C868.058 63.1477 877.109 48.3059 838.81 40.0787C851.577 7.07289 806.895 0.681697 810.79 17.8633C805.837 11.2614 799.135 6.15828 791.431 3.12412C783.728 0.0899558 775.328 -0.755677 767.169 0.68171C759.01 2.1191 751.414 5.78288 745.23 11.2636C739.046 16.7444 734.517 23.8262 732.149 31.7177H720.724C713.106 31.7177 705.8 34.7253 700.413 40.0787C695.026 45.4321 692 52.6928 692 60.2637C692 67.8346 695.026 75.0953 700.413 80.4487C705.8 85.8021 713.106 88.8097 720.724 88.8097Z" stroke="#F4F7FF" stroke-opacity="0.72" stroke-width="2" stroke-linecap="round" stroke-linejoin="round" shape-rendering="crispEdges"/>
</g>
<g filter="url(#filter3_d_346_8)">
<path d="M720.724 602.81H774.98C783.266 602.808 822.853 605.981 835.619 605.981C851.577 605.981 870.726 607.44 864.343 584.508C868.058 577.148 877.109 562.306 838.81 554.079C851.577 521.073 806.895 514.682 810.79 531.863C805.837 525.261 799.135 520.158 791.431 517.124C783.728 514.09 775.328 513.244 767.169 514.682C759.01 516.119 751.414 519.783 745.23 525.264C739.046 530.744 734.517 537.826 732.149 545.718H720.724C713.106 545.718 705.8 548.725 700.413 554.079C695.026 559.432 692 566.693 692 574.264C692 581.835 695.026 589.095 700.413 594.449C705.8 599.802 713.106 602.81 720.724 602.81Z" fill="#F4F7FF" fill-opacity="0.72" shape-rendering="crispEdges"/>
<path d="M720.724 602.81H774.98C783.266 602.808 822.853 605.981 835.619 605.981C851.577 605.981 870.726 607.44 864.343 584.508C868.058 577.148 877.109 562.306 838.81 554.079C851.577 521.073 806.895 514.682 810.79 531.863C805.837 525.261 799.135 520.158 791.431 517.124C783.728 514.09 775.328 513.244 767.169 514.682C759.01 516.119 751.414 519.783 745.23 525.264C739.046 530.744 734.517 537.826 732.149 545.718H720.724C713.106 545.718 705.8 548.725 700.413 554.079C695.026 559.432 692 566.693 692 574.264C692 581.835 695.026 589.095 700.413 594.449C705.8 599.802 713.106 602.81 720.724 602.81Z" stroke="#F4F7FF" stroke-opacity="0.72" stroke-width="2" stroke-linecap="round" stroke-linejoin="round" shape-rendering="crispEdges"/>
</g>
</g>
<defs>
<filter id="filter0_d_346_8" x="-69.0001" y="89" width="182" height="100" filterUnits="userSpaceOnUse" color-interpolation-filters="sRGB">
<feFlood flood-opacity="0" result="BackgroundImageFix"/>
<feColorMatrix in="SourceAlpha" type="matrix" values="0 0 0 0 0 0 0 0 0 0 0 0 0 0 0 0 0 0 127 0" result="hardAlpha"/>
<feOffset/>
<feGaussianBlur stdDeviation="2"/>
<feComposite in2="hardAlpha" operator="out"/>
<feColorMatrix type="matrix" values="0 0 0 0 0 0 0 0 0 0 0 0 0 0 0 0 0 0 0.25 0"/>
<feBlend mode="normal" in2="BackgroundImageFix" result="effect1_dropShadow_346_8"/>
<feBlend mode="normal" in="SourceGraphic" in2="effect1_dropShadow_346_8" result="shape"/>
</filter>
<filter id="filter1_d_346_8" x="-69.0001" y="603" width="182" height="100" filterUnits="userSpaceOnUse" color-interpolation-filters="sRGB">
<feFlood flood-opacity="0" result="BackgroundImageFix"/>
<feColorMatrix in="SourceAlpha" type="matrix" values="0 0 0 0 0 0 0 0 0 0 0 0 0 0 0 0 0 0 127 0" result="hardAlpha"/>
<feOffset/>
<feGaussianBlur stdDeviation="2"/>
<feComposite in2="hardAlpha" operator="out"/>
<feColorMatrix type="matrix" values="0 0 0 0 0 0 0 0 0 0 0 0 0 0 0 0 0 0 0.25 0"/>
<feBlend mode="normal" in2="BackgroundImageFix" result="effect1_dropShadow_346_8"/>
<feBlend mode="normal" in="SourceGraphic" in2="effect1_dropShadow_346_8" result="shape"/>
</filter>
<filter id="filter2_d_346_8" x="691" y="-1" width="178" height="94" filterUnits="userSpaceOnUse" color-interpolation-filters="sRGB">
<feFlood flood-opacity="0" result="BackgroundImageFix"/>
<feColorMatrix in="SourceAlpha" type="matrix" values="0 0 0 0 0 0 0 0 0 0 0 0 0 0 0 0 0 0 127 0" result="hardAlpha"/>
<feOffset/>
<feComposite in2="hardAlpha" operator="out"/>
<feColorMatrix type="matrix" values="0 0 0 0 0 0 0 0 0 0 0 0 0 0 0 0 0 0 0.25 0"/>
<feBlend mode="normal" in2="BackgroundImageFix" result="effect1_dropShadow_346_8"/>
<feBlend mode="normal" in="SourceGraphic" in2="effect1_dropShadow_346_8" result="shape"/>
</filter>
<filter id="filter3_d_346_8" x="691" y="513" width="178" height="94" filterUnits="userSpaceOnUse" color-interpolation-filters="sRGB">
<feFlood flood-opacity="0" result="BackgroundImageFix"/>
<feColorMatrix in="SourceAlpha" type="matrix" values="0 0 0 0 0 0 0 0 0 0 0 0 0 0 0 0 0 0 127 0" result="hardAlpha"/>
<feOffset/>
<feComposite in2="hardAlpha" operator="out"/>
<feColorMatrix type="matrix" values="0 0 0 0 0 0 0 0 0 0 0 0 0 0 0 0 0 0 0.25 0"/>
<feBlend mode="normal" in2="BackgroundImageFix" result="effect1_dropShadow_346_8"/>
<feBlend mode="normal" in="SourceGraphic" in2="effect1_dropShadow_346_8" result="shape"/>
</filter>
<clipPath id="clip0_346_8">
<rect width="781" height="1028" fill="white"/>
</clipPath>
</defs>
</svg>
