<svg width="273" height="55" viewBox="0 0 273 55" fill="none" xmlns="http://www.w3.org/2000/svg">
<path d="M25.666 0.683203L19.4144 11.7859H34.226L27.9744 0.683203C27.4614 -0.227734 26.1791 -0.227734 25.666 0.683203Z" fill="#E18C36"/>
<path d="M0.666319 28.6834L11.4946 35.0934V19.9065L0.666319 26.3165C-0.222106 26.8426 -0.222106 28.1574 0.666319 28.6834Z" fill="#E18C36"/>
<path d="M9.14292 47.299L21.2203 43.981L10.7468 33.2421L7.51075 45.6255C7.24517 46.6416 8.15193 47.5714 9.14292 47.299Z" fill="#EC8560"/>
<path d="M27.9744 54.3167L34.226 43.214H19.4144L25.666 54.3167C26.1791 55.2278 27.4614 55.2278 27.9744 54.3167Z" fill="#E18C36"/>
<path d="M46.1302 45.6255L42.8941 33.2421L32.4207 43.981L44.498 47.299C45.489 47.5714 46.3958 46.6416 46.1302 45.6255Z" fill="#EC8560"/>
<path d="M52.9743 26.3165L42.146 19.9065V35.0934L52.9743 28.6834C53.8628 28.1574 53.8628 26.8426 52.9743 26.3165Z" fill="#E18C36"/>
<path d="M10.1345 19.4154L10.7466 21.7579L20.4461 11.8127C16.1605 12.9653 12.5085 15.7201 10.1345 19.4154Z" fill="black" fill-opacity="0.09"/>
<path d="M9.0496 21.3539C7.8782 23.7818 7.21879 26.5158 7.21879 29.408C7.21879 30.5457 7.32167 31.6587 7.51654 32.7387L11.4946 35.0934V19.9065L9.0496 21.3539Z" fill="black" fill-opacity="0.09"/>
<path d="M10.7468 33.2421L9.44299 38.2307C11.0545 41.204 13.4549 43.6653 16.3548 45.3177L21.2203 43.981L10.7468 33.2421Z" fill="black" fill-opacity="0.09"/>
<path d="M19.4144 43.214L21.7111 47.2928C22.7642 47.4926 23.8498 47.5981 24.9594 47.5981C27.7801 47.5981 30.4466 46.922 32.8145 45.7209L34.226 43.214H19.4144Z" fill="black" fill-opacity="0.09"/>
<path d="M32.4207 43.981L34.7051 44.6087C38.309 42.1746 40.996 38.4301 42.12 34.0359L32.4207 43.981Z" fill="black" fill-opacity="0.09"/>
<path d="M26.8203 45.6899C36.6181 45.6899 44.5607 37.5459 44.5607 27.4999C44.5607 17.4539 35.8197 12.4737 26.0219 12.4737C16.2241 12.4737 9.07989 17.4539 9.07989 27.4999C9.07989 37.5459 17.0225 45.6899 26.8203 45.6899Z" fill="#F7D64C"/>
<path d="M29.0421 32.1852C28.1696 32.1852 27.3808 31.8109 26.8203 31.2107C26.2599 31.8111 25.4712 32.1852 24.5985 32.1852C22.9023 32.1852 21.5223 30.7702 21.5223 29.0309C21.5223 28.547 21.9049 28.1545 22.377 28.1545C22.849 28.1545 23.2317 28.5468 23.2317 29.0309C23.2317 29.8038 23.8449 30.4326 24.5986 30.4326C25.3524 30.4326 25.9658 29.8038 25.9658 29.0309C25.9658 28.547 26.3484 28.1545 26.8204 28.1545C27.2925 28.1545 27.6751 28.5468 27.6751 29.0309C27.6751 29.8038 28.2884 30.4326 29.0422 30.4326C29.796 30.4326 30.4092 29.8038 30.4092 29.0309C30.4092 28.547 30.7919 28.1545 31.2639 28.1545C31.736 28.1545 32.1186 28.5468 32.1186 29.0309C32.1185 30.7702 30.7385 32.1852 29.0421 32.1852Z" fill="#394049"/>
<path d="M16.5586 26.5035C16.0866 26.5035 15.7039 26.1112 15.7039 25.6271V24.6596C15.7039 24.1756 16.0865 23.7832 16.5586 23.7832C17.0307 23.7832 17.4133 24.1755 17.4133 24.6596V25.6271C17.4132 26.111 17.0306 26.5035 16.5586 26.5035Z" fill="#394049"/>
<path d="M37.0821 26.5035C36.6102 26.5035 36.2275 26.1112 36.2275 25.6271V24.6596C36.2275 24.1756 36.6101 23.7832 37.0821 23.7832C37.5542 23.7832 37.9368 24.1755 37.9368 24.6596V25.6271C37.9368 26.111 37.5542 26.5035 37.0821 26.5035Z" fill="#394049"/>
<path d="M19.0545 14.5906C19.0545 14.1944 18.8588 13.8145 18.5104 13.5343C18.1619 13.2542 17.1966 13.0968 17.1966 13.0968C17.1966 13.0968 17.099 13.0482 17.1501 13.0072C17.4988 12.7269 17.6946 12.3467 17.6946 11.9503C17.6946 11.5539 17.4988 11.1737 17.1501 10.8935C16.8015 10.6132 16.3287 10.4557 15.8356 10.4557C15.3426 10.4557 14.8698 10.6132 14.5211 10.8935C14.47 10.9345 14.4096 10.9121 14.4096 10.8561C14.4096 10.4599 14.2139 10.08 13.8655 9.79984C13.517 9.5197 13.0444 9.36232 12.5517 9.36232C12.0589 9.36232 11.5863 9.5197 11.2379 9.79984C10.8895 10.08 10.6937 10.4599 10.6937 10.8561C10.6937 10.9159 10.6333 10.9345 10.5823 10.8935C10.4096 10.7547 10.2047 10.6446 9.97915 10.5695C9.75361 10.4944 9.51187 10.4557 9.26775 10.4557C9.02362 10.4557 8.78188 10.4944 8.55634 10.5695C8.3308 10.6446 8.12586 10.7547 7.95324 10.8935C7.78062 11.0322 7.64368 11.197 7.55026 11.3783C7.45684 11.5597 7.40875 11.754 7.40875 11.9503C7.40875 12.1466 7.45684 12.3409 7.55026 12.5223C7.64368 12.7036 7.78062 12.8684 7.95324 13.0072C8.00433 13.0482 7.97646 13.0968 7.90679 13.0968C7.41403 13.0968 6.94145 13.2542 6.59301 13.5343C6.24458 13.8145 6.04883 14.1944 6.04883 14.5906C6.04883 14.9868 6.24458 15.3667 6.59301 15.6469C6.94145 15.927 7.41403 16.0844 7.90679 16.0844C7.98111 16.0844 8.00433 16.1329 7.95324 16.174C7.78062 16.3128 7.64368 16.4776 7.55026 16.6589C7.45684 16.8402 7.40875 17.0346 7.40875 17.2309C7.40875 17.4271 7.45684 17.6215 7.55026 17.8028C7.64368 17.9842 7.78062 18.1489 7.95324 18.2877C8.30187 18.568 8.77471 18.7255 9.26775 18.7255C9.51187 18.7255 9.75361 18.6868 9.97915 18.6117C10.2047 18.5366 10.4096 18.4265 10.5823 18.2877C10.6333 18.2466 10.6937 18.269 10.6937 18.3251C10.6937 18.7212 10.8895 19.1012 11.2379 19.3813C11.5863 19.6615 12.0589 19.8188 12.5517 19.8188C13.0444 19.8188 13.517 19.6615 13.8655 19.3813C14.2139 19.1012 14.4096 18.7212 14.4096 18.3251C14.4096 18.2653 14.47 18.2466 14.5211 18.2877C14.6937 18.4265 14.8987 18.5366 15.1242 18.6117C15.3498 18.6868 15.5915 18.7255 15.8356 18.7255C16.0798 18.7255 16.3215 18.6868 16.547 18.6117C16.7726 18.5366 16.9775 18.4265 17.1501 18.2877C17.3228 18.1489 17.4597 17.9842 17.5531 17.8028C17.6465 17.6215 17.6946 17.4271 17.6946 17.2309C17.6946 17.0346 17.6465 16.8402 17.5531 16.6589C17.4597 16.4776 17.3228 16.3128 17.1501 16.174C17.099 16.1329 17.1269 16.0844 17.1966 16.0844C17.6893 16.0844 18.1619 15.927 18.5104 15.6469C18.8588 15.3667 19.0545 14.9868 19.0545 14.5906Z" fill="white"/>
<path d="M42.308 19.7144C43.5292 22.4673 42.8844 21.2591 51.1043 21.2716C42.0189 18.5342 48.1793 18.5057 42.308 19.7144Z" fill="#C0764A"/>
<path d="M39.4921 16.4317V10.83C39.4921 7.95768 38.0729 5.20304 35.5468 3.17202C33.0206 1.14101 29.5944 0 26.0219 0C22.4494 0 19.0232 1.14101 16.497 3.17202C13.9709 5.20304 12.5517 7.95768 12.5517 10.83V16.4317L0.939444 21.2865C0.939444 25.7679 12.0175 25.2637 19.519 22.7803C27.4154 20.1661 39.9566 17.9255 51.1043 21.2865L39.4921 16.4317Z" fill="#FFD53E"/>
<path d="M12.5517 13.0594H39.4921V16.7939H12.5517V13.0594Z" fill="#CB525F"/>
<path d="M19.0545 14.5906C19.0545 14.1944 18.8588 13.8145 18.5104 13.5343C18.1619 13.2542 17.1966 13.0968 17.1966 13.0968C17.1966 13.0968 17.099 13.0482 17.1501 13.0072C17.4988 12.7269 17.6946 12.3467 17.6946 11.9503C17.6946 11.5539 17.4988 11.1737 17.1501 10.8935C16.8015 10.6132 16.3287 10.4557 15.8356 10.4557C15.3426 10.4557 14.8698 10.6132 14.5211 10.8935C14.47 10.9345 14.4096 10.9121 14.4096 10.8561C14.4096 10.4599 14.2139 10.08 13.8655 9.79984C13.517 9.5197 13.0444 9.36232 12.5517 9.36232C12.0589 9.36232 11.5863 9.5197 11.2379 9.79984C10.8895 10.08 10.6937 10.4599 10.6937 10.8561C10.6937 10.9159 10.6333 10.9345 10.5823 10.8935C10.4096 10.7547 10.2047 10.6446 9.97915 10.5695C9.75361 10.4944 9.51187 10.4557 9.26775 10.4557C9.02362 10.4557 8.78188 10.4944 8.55634 10.5695C8.3308 10.6446 8.12586 10.7547 7.95324 10.8935C7.78062 11.0322 7.64368 11.197 7.55026 11.3783C7.45684 11.5597 7.40875 11.754 7.40875 11.9503C7.40875 12.1466 7.45684 12.3409 7.55026 12.5223C7.64368 12.7036 7.78062 12.8684 7.95324 13.0072C8.00433 13.0482 7.97646 13.0968 7.90679 13.0968C7.41403 13.0968 6.94145 13.2542 6.59301 13.5343C6.24458 13.8145 6.04883 14.1944 6.04883 14.5906C6.04883 14.9868 6.24458 15.3667 6.59301 15.6469C6.94145 15.927 7.41403 16.0844 7.90679 16.0844C7.98111 16.0844 8.00433 16.1329 7.95324 16.174C7.78062 16.3128 7.64368 16.4776 7.55026 16.6589C7.45684 16.8402 7.40875 17.0346 7.40875 17.2309C7.40875 17.4271 7.45684 17.6215 7.55026 17.8028C7.64368 17.9842 7.78062 18.1489 7.95324 18.2877C8.30187 18.568 8.77471 18.7255 9.26775 18.7255C9.51187 18.7255 9.75361 18.6868 9.97915 18.6117C10.2047 18.5366 10.4096 18.4265 10.5823 18.2877C10.6333 18.2466 10.6937 18.269 10.6937 18.3251C10.6937 18.7212 10.8895 19.1012 11.2379 19.3813C11.5863 19.6615 12.0589 19.8188 12.5517 19.8188C13.0444 19.8188 13.517 19.6615 13.8655 19.3813C14.2139 19.1012 14.4096 18.7212 14.4096 18.3251C14.4096 18.2653 14.47 18.2466 14.5211 18.2877C14.6937 18.4265 14.8987 18.5366 15.1242 18.6117C15.3498 18.6868 15.5915 18.7255 15.8356 18.7255C16.0798 18.7255 16.3215 18.6868 16.547 18.6117C16.7726 18.5366 16.9775 18.4265 17.1501 18.2877C17.3228 18.1489 17.4597 17.9842 17.5531 17.8028C17.6465 17.6215 17.6946 17.4271 17.6946 17.2309C17.6946 17.0346 17.6465 16.8402 17.5531 16.6589C17.4597 16.4776 17.3228 16.3128 17.1501 16.174C17.099 16.1329 17.1269 16.0844 17.1966 16.0844C17.6893 16.0844 18.1619 15.927 18.5104 15.6469C18.8588 15.3667 19.0545 14.9868 19.0545 14.5906Z" fill="white"/>
<path d="M9.76475 14.5906C9.76475 15.1848 10.0584 15.7548 10.581 16.175C11.1037 16.5952 11.8125 16.8313 12.5517 16.8313C13.2908 16.8313 13.9997 16.5952 14.5224 16.175C15.045 15.7548 15.3386 15.1848 15.3386 14.5906C15.3386 13.9963 14.5224 13.0062 14.5224 13.0062C14.5224 13.0062 13.2908 12.3499 12.5517 12.3499C11.8125 12.3499 11.1037 12.586 10.581 13.0062C10.0584 13.4264 9.76475 13.9963 9.76475 14.5906Z" fill="#CB525F"/>
<path d="M11.6227 14.5906C11.6227 14.7887 11.7206 14.9786 11.8948 15.1187C12.069 15.2588 12.3053 15.3375 12.5517 15.3375C12.7981 15.3375 13.0344 15.2588 13.2086 15.1187C13.3828 14.9786 13.4807 14.7887 13.4807 14.5906C13.4807 14.3925 13.3828 14.2025 13.2086 14.0624C13.0344 13.9224 12.7981 13.8437 12.5517 13.8437C12.3053 13.8437 12.069 13.9224 11.8948 14.0624C11.7206 14.2025 11.6227 14.3925 11.6227 14.5906Z" fill="#FFD53E"/>
<path d="M65.9265 44.9387L66.122 43.9866L65.6333 44.5378L65.7799 43.736L65.3889 44.1369L65.4866 43.4353L65.0957 43.736L65.1934 43.1848L64.8513 43.3852L64.9002 42.9843L64.5092 43.1848L64.5581 42.834L64.1671 43.0344L64.2159 42.6336L63.825 42.834L63.8738 42.4832L63.4829 42.5834L63.5806 42.2828L63.1407 42.383L63.2385 42.0322L62.8475 42.1826L62.9453 41.8318L62.5054 41.932L62.6031 41.6313L62.2122 41.6814L62.3099 41.3808L61.9189 41.481L62.0656 41.1302L61.6746 41.2304L61.7723 40.9298L61.3813 40.9799L61.528 40.6792H61.0881L61.2347 40.3786L60.8437 40.4287L60.9904 40.128H60.5016L60.6971 39.7772L60.2084 39.8273L60.4528 39.4766H59.964L60.1595 39.1759H59.6708L59.9152 38.8752L59.3776 38.8251L59.6708 38.5244H59.1332L59.4264 38.2238H58.9377L59.2309 37.873L58.6445 37.9231L59.0354 37.5222H58.3512L58.7911 37.1714L58.1069 37.1213L58.5956 36.8207L57.9114 36.7204L58.449 36.4699L57.7648 36.3196L58.3024 36.069L57.6181 35.9688L58.2046 35.7182L57.5204 35.5679L58.1069 35.3674L57.4226 35.2171L58.0091 34.9666L57.3249 34.8162L57.9114 34.6158L57.2272 34.4654L57.8625 34.265L57.1783 34.1147L57.7648 33.9142L57.0805 33.7138L57.7159 33.5133L57.0317 33.363L57.667 33.1626L56.9828 32.9621L57.6181 32.8118L56.9339 32.6113L57.5693 32.461L56.885 32.2606L57.5204 32.0601L56.8362 31.8597L57.5204 31.7093L56.7873 31.5089L57.4715 31.3586L56.7873 31.1581L57.4226 31.0078L56.7384 30.7572L57.4226 30.6069L56.7384 30.4064L57.3738 30.2561L56.6896 30.0557L57.3738 29.9053L56.6896 29.6548L57.3738 29.5546L56.6896 29.304L57.3249 29.1537L56.6407 28.9532L57.3249 28.8029L56.6407 28.5523L57.3249 28.4521L56.6407 28.2016L57.3249 28.1013L56.6407 27.8508L57.276 27.7004L56.6407 27.4499L57.276 27.3497L56.6407 27.0991L57.276 26.9989L56.6407 26.7483L57.3249 26.598L56.6407 26.3474L57.3738 26.2472L56.6407 25.8964L57.3249 25.7962L56.6896 25.4956L57.3738 25.4454L56.6896 25.1448L57.3738 25.0947L56.7384 24.7439H57.4226L56.7873 24.3931L57.4715 24.343L56.8362 24.0423L57.4715 23.9922L56.885 23.6414H57.5204L56.9339 23.2907H57.5693L56.9828 22.9399H57.667L57.0317 22.5891H57.7159L57.0805 22.2383H57.7648L57.1783 21.8374H57.8136L57.2272 21.4867H57.8625L57.3249 21.1359H57.9602L57.3738 20.7851H58.0091L57.4715 20.4343H58.1069L57.5204 20.0836H58.1557L57.6181 19.6827L58.2535 19.7328L57.7159 19.3319L58.3512 19.382L57.7648 18.9811L58.4001 19.0312L57.8625 18.6303L58.4978 18.6804L57.9602 18.2796L58.5956 18.3297L58.058 17.8787L58.6933 17.9789L58.1557 17.5279L58.7911 17.6281L58.3024 17.127L58.9377 17.2773L58.4001 16.7762L59.0354 16.8764L58.5467 16.3753L59.2309 16.5257L58.6933 15.9744L59.3776 16.1749L58.8888 15.5736L59.6219 15.8241L59.1332 15.1226L59.9152 15.5234L59.5242 14.6214L60.2084 15.1727L59.964 14.2206L60.5505 14.7718L60.355 13.9199L60.8437 14.4711L60.6971 13.6693L61.137 14.2206L61.0392 13.4188L61.4302 14.0201L61.3325 13.2183L61.7723 13.8197L61.6746 12.9678L62.0656 13.6192L61.9678 12.7673L62.3588 13.4188L62.261 12.5669L62.7009 13.2684L62.6031 12.3664L62.9941 13.068L62.8964 12.2161L63.3362 12.9177L63.2385 12.0157L63.6783 12.7673L63.5806 11.8653L63.9716 12.617L63.9227 11.715L64.3137 12.4667L64.2159 11.6148L64.6558 12.3664L64.5581 11.4644L64.9979 12.2161L64.9002 11.3642L65.2911 12.1159L65.2423 11.264L65.6333 12.0157L65.5844 11.1638L65.9754 11.9154V11.0636L66.3175 11.8152V10.9633L66.6596 11.715V10.9132L67.0017 11.6148V10.813L67.3438 11.5146V10.7629L67.6859 11.4143V10.6627L68.028 11.3141V10.6126L68.3701 11.2139L68.419 10.5123L68.7122 11.1137L68.7611 10.4121L69.0543 11.0134L69.1032 10.3119L69.3964 10.9132L69.4453 10.2117L69.7386 10.7629V10.1114L70.0318 10.6627L70.0807 9.96111L70.3739 10.5624L70.4228 9.86089L70.716 10.4121L70.7649 9.71056L71.0581 10.3119L71.107 9.61034L71.4002 10.2117L71.4491 9.46L71.7423 10.0613L71.7912 9.30967L72.0356 9.96111L72.1333 9.20945L72.3777 9.86089L72.4754 9.10923L72.7198 9.76067L72.8175 8.95889L73.1108 9.66045L73.1596 8.85867L73.4529 9.56023L73.5506 8.80856L73.795 9.51011L73.9416 8.70834L74.186 9.51011L74.3326 8.65823L74.6258 9.51011L74.8702 8.65823L75.0168 9.51011L75.3589 8.70834L75.4567 9.46L75.7988 8.75845L75.8476 9.51011L76.1409 8.85867L76.1897 9.56023L76.5319 8.95889L76.5807 9.61034L76.9228 9.05911L76.9717 9.71056L77.2649 9.15934L77.3138 9.76067L77.6559 9.25956L77.7048 9.86089L78.0469 9.40989V9.96111L78.389 9.51011V10.0613L78.78 9.61034V10.1616L79.171 9.76067V10.2618L79.5131 9.86089V10.362L79.8552 10.0112V10.4622L80.1973 10.1114V10.5624L80.5394 10.2117V10.6627L80.8815 10.3119V10.7629L81.2236 10.4121V10.8631L81.6146 10.5624L81.5657 11.0134L81.9567 10.6627L81.9078 11.1137L82.2988 10.7629L82.25 11.2139L82.6409 10.8631L82.5921 11.3642L83.0319 11.0134L82.9342 11.5146L83.374 11.1638L83.2763 11.6649L83.7161 11.3141L83.5695 11.8152L84.1071 11.5146L83.9116 12.0658L84.4981 11.7651L84.2537 12.3163L84.8891 12.0658L84.6447 12.5669L85.1823 12.3163L84.8891 12.8174L85.4755 12.617L85.1823 13.068L85.7199 12.8676L85.4267 13.3186L86.0131 13.1181L85.671 13.5691L86.3064 13.3687L85.9643 13.8197L86.5507 13.6192L86.2086 14.0702L86.844 13.8698L86.453 14.3208L87.1372 14.1203L86.7462 14.5713L87.3816 14.3709L86.9906 14.872L87.6748 14.6214L87.235 15.1226L87.9681 14.872L87.4793 15.3731L88.2124 15.1226L87.7237 15.6738L88.4568 15.4232L87.9681 15.9744L88.75 15.6738L88.2124 16.225L88.9944 16.0246L88.4079 16.5257L89.1899 16.3252L88.6034 16.8764L89.4342 16.676L88.7989 17.2272L89.6297 17.0268L88.9944 17.578L89.8252 17.4277L89.0433 18.029L90.0696 17.9789L89.1899 18.4299L90.2162 18.5802L89.4342 18.8809L90.2651 19.0312L89.4342 19.2818L90.2651 19.5323L89.4831 19.7328L90.2651 19.9833L89.2387 20.1838L90.1673 20.8352L89.1899 20.735L89.8252 21.5869L88.8478 21.2862L89.2876 22.3887L88.4568 21.8374L88.5057 22.8898L87.9681 22.2383L87.8703 23.2406L87.4305 22.4889L87.1372 23.3909L86.8929 22.6893L86.5996 23.3909L86.4041 22.7394L86.1109 23.3909L85.9643 22.7896L85.7199 23.3909L85.6222 22.8397L85.3778 23.3408L85.2801 22.8397L85.0357 23.3408L84.8891 22.8397L84.6447 23.3909L84.547 22.8397L84.3026 23.3909L84.2049 22.8898L83.9605 23.3909L83.8628 22.8898L83.6184 23.441L83.5206 22.8898L83.2763 23.4911L83.1785 22.9399L82.8853 23.4911L82.7876 22.9399L82.5432 23.5412L82.4454 22.9399L82.2011 23.5913L82.1033 22.99L81.859 23.6414L81.7612 22.99L81.468 23.6414L81.3702 22.99L81.077 23.6916L80.9793 22.99L80.6372 23.6916L80.5883 22.9399L80.2462 23.6414L80.1973 22.8397L79.7574 23.5412L79.8063 22.7394L79.2687 23.3909L79.4153 22.5891L78.8289 23.2406L79.0244 22.4388L78.389 22.99L78.6334 22.2383L77.9492 22.7394L78.2913 22.0379L77.6071 22.4388L77.9492 21.7873L77.2161 22.1381L77.6559 21.4867L76.874 21.7873L77.3138 21.2361L76.6296 21.4867L77.0206 20.9856L76.3852 21.186L76.7762 20.735L76.1897 20.9354L76.5319 20.5346L75.9943 20.735L76.2875 20.3341L75.7988 20.5847L76.1409 20.0836L75.6033 20.3842L75.8476 19.9332L75.3589 20.2339L75.6033 19.7328L75.1634 20.1337L75.31 19.5824L74.9191 20.0334L75.0168 19.4822L74.6747 19.9332L74.7724 19.382L74.4303 19.833L74.4792 19.2818L74.186 19.7829V19.2317L73.8927 19.7328V19.1816L73.6484 19.7328L73.5995 19.2317L73.404 19.7328L73.3063 19.2317L73.1596 19.7328L73.013 19.2317L72.9641 19.7829L72.7687 19.2818L72.7198 19.833L72.4754 19.382V19.8831L72.2311 19.4321V19.9833L71.9867 19.5824L72.0356 20.0836L71.7423 19.6827L71.8401 20.1838L71.498 19.833L71.6446 20.284L71.3025 19.9833L71.4491 20.4343L71.1559 20.1838L71.3025 20.5346L70.9115 20.3341L71.1559 20.735L70.7649 20.5346L71.0092 20.9354L70.5694 20.7851L70.9115 21.186L70.4228 21.0357L70.7649 21.4366L70.2762 21.3363L70.6671 21.6871L70.1784 21.637L70.5694 21.9878L70.0318 21.9377L70.5205 22.3386L70.0318 22.2884L70.4716 22.5891H69.934L70.4228 22.8898H69.8852L70.4228 23.1904L69.8852 23.2406L70.3739 23.5412L69.8363 23.5913L70.3739 23.8419L69.8363 23.892L70.3739 24.1927L69.8363 24.2428L70.4228 24.4933L69.8363 24.5936L70.4228 24.8441L69.8363 24.9443L70.4228 25.1949L69.8363 25.245L70.4716 25.4956L69.8363 25.5958L70.4716 25.8463L69.8363 25.9466L70.5205 26.1971L69.8852 26.2973L70.5205 26.5479L69.8852 26.6481L70.5694 26.8987L69.8852 26.9989L70.6183 27.2494L69.8852 27.3998L70.6183 27.6503L69.934 27.7506L70.6671 28.0011L69.9829 28.1013L70.6671 28.3519L69.9829 28.4521L70.716 28.7027L69.9829 28.8029L70.716 29.0534L70.0318 29.1537L70.7649 29.4042L70.0318 29.5044L70.8138 29.7049L70.0807 29.8552L70.8138 30.0557L70.1295 30.1559L70.8626 30.3563L70.1295 30.5067L70.9115 30.657L70.1784 30.8073L70.9604 31.0078L70.2273 31.1581L71.0092 31.3084L70.325 31.4588L71.0581 31.6091L70.325 31.8096L71.107 31.9098L70.4716 32.1102L71.2047 32.1603L70.5694 32.4109H71.2536L70.6671 32.7116L71.3514 32.6614L70.8138 32.9621L71.4491 32.8619L70.9604 33.2127L71.5957 33.0623L71.107 33.4131L71.6935 33.2628L71.2536 33.6136L71.7912 33.4131L71.4491 33.7639L71.9378 33.5133L71.5957 33.8641L72.0356 33.6136L71.6935 34.1147L72.2311 33.7138L71.9867 34.1147L72.3288 33.7639L72.1333 34.265L72.4754 33.8641L72.2799 34.3652L72.622 33.9142L72.4754 34.4654L72.8175 33.9643L72.7198 34.5657L73.013 33.9643L72.9641 34.6158L73.2085 34.0144V34.6659L73.404 34.0144L73.4529 34.6659L73.6484 34.0144L73.6972 34.6659L73.8439 33.9643L73.9416 34.6158L74.0393 33.9142L74.186 34.5657L74.2348 33.8641L74.4303 34.5156L74.3815 33.814L74.6258 34.3652L74.5281 33.7639L74.7724 34.265L74.6747 33.6637L74.9191 34.0646L74.7724 33.6136L75.1634 34.1147L74.9191 33.5133L75.4567 34.1147L75.1145 33.3129L75.6033 33.814L75.2612 33.1626L75.8476 33.7138L75.4078 33.0122L76.1409 33.5634L75.6033 32.7617L76.3852 33.363L75.8476 32.5111L76.6785 33.1626L76.092 32.2104L77.0206 32.912L76.3852 31.8597L77.3138 32.6614L76.7273 31.559L77.7048 32.4109L77.1183 31.2082L78.0469 32.2104L77.6071 30.8574L78.4868 31.9599L78.1447 30.5568L78.9266 31.8096L78.78 30.3062L79.3665 31.6592L79.4642 30.1058L79.9041 31.4588L80.0996 30.0557L80.3928 31.3084L80.6372 30.0056L80.8326 31.2082L81.077 30.0056L81.2725 31.1581L81.5657 30.0056L81.7124 31.1581L81.9567 30.0557L82.1033 31.1581L82.3966 30.1058L82.4943 31.1581L82.7876 30.1559L82.8853 31.1581L83.1785 30.206L83.2763 31.2082L83.5695 30.2561L83.6673 31.2082L83.9605 30.3062L84.0582 31.2082L84.3026 30.3563L84.4492 31.2082L84.6447 30.4064L84.7913 31.3084L85.0357 30.4566L85.1823 31.3586L85.4267 30.5067L85.5733 31.4087L85.8665 30.6069L85.9643 31.4588L86.3064 30.657L86.3553 31.559L86.7462 30.7572V31.6592L87.235 30.9076L87.1372 31.7594L87.6748 31.108L87.5282 32.1603L88.5545 31.5089L88.2124 32.5111L89.2876 32.2104L88.6523 33.0122H89.7763L88.9944 33.5634L89.923 33.9142L89.2387 34.1648L89.923 34.4654L89.2387 34.6158L89.8741 35.0167L89.1899 35.1169L89.7763 35.5178L89.141 35.5679L89.5809 36.0189L88.9944 35.9688L89.3854 36.4699L88.8478 36.4198L89.1899 36.9209L88.7011 36.8207L88.9944 37.2216L88.5057 37.1213L88.75 37.5723L88.3102 37.4721L88.5545 37.873L88.1147 37.7728L88.3102 38.2238L87.9192 38.1236L88.0658 38.5244L87.7237 38.4242L87.8703 38.8251L87.5282 38.7249L87.6259 39.1258L87.2838 39.0256L87.3816 39.4264L87.0395 39.3262L87.1372 39.7271L86.844 39.6269L86.8929 40.0278L86.5996 39.9276V40.3284L86.3064 40.1781L86.3553 40.579L86.062 40.4788V40.8797L85.8177 40.7293L85.7688 41.1302L85.4755 40.9799L85.4267 41.4309L85.1823 41.2304L85.0846 41.6814L84.8402 41.4309L84.7913 41.8819L84.547 41.6313L84.4492 42.0823L84.2537 41.8318L84.1071 42.2327L83.9116 41.9821L83.8139 42.4331L83.6184 42.1324L83.4718 42.5834L83.2763 42.2828L83.1785 42.7839L82.983 42.4331L82.8364 42.9342L82.6409 42.5834L82.5432 43.0845L82.2988 42.7338L82.2011 43.285L82.0056 42.834L81.9078 43.4353L81.6635 42.9843L81.5657 43.5857L81.3214 43.1347L81.2725 43.736L81.0281 43.2349L80.9304 43.8863L80.686 43.3852L80.5883 44.0367L80.3439 43.4854L80.295 44.1369L80.0507 43.5857L79.9529 44.2872L79.7086 43.736L79.6108 44.3874L79.3665 43.8362L79.2687 44.5378L79.0244 43.9364L78.9755 44.638L78.6823 44.0367L78.6334 44.7382L78.389 44.1369L78.2913 44.8384L78.0469 44.187L77.9492 44.9387L77.7048 44.2872L77.6071 45.0389L77.3627 44.3874L77.2649 45.1391L77.0206 44.4877L76.9228 45.1892L76.6785 44.5378L76.5807 45.2894L76.3364 44.638L76.2386 45.3897L75.9943 44.6881L75.8965 45.4899L75.6521 44.7883L75.5544 45.5901L75.31 44.8886L75.2123 45.6402L74.9679 44.9387L74.8702 45.7404L74.6258 45.0389L74.5281 45.8407L74.2837 45.089L74.186 45.9409L73.9416 45.1892L73.795 46.0411L73.5995 45.2393L73.4529 46.1413L73.2085 45.2894L73.013 46.2416L72.8175 45.2393L72.5732 46.2917L72.4266 45.2894L72.0844 46.3418L72.0356 45.3897L71.6446 46.3418V45.4398L71.3025 46.3418L71.2536 45.3897L70.9115 46.3418V45.3897L70.5205 46.3418V45.3897L70.1784 46.3418V45.3396L69.7874 46.2917L69.8363 45.2894L69.4453 46.2416V45.2393L69.0543 46.1914L69.1032 45.1391L68.6634 46.0912L68.7122 45.089L68.2724 46.0411L68.3701 44.9888L67.9303 45.9409L68.028 44.8886L67.5393 45.7906L67.637 44.7883L67.1483 45.6903L67.2949 44.638L66.7573 45.54L66.9039 44.5879L66.3663 45.3897L66.513 44.8384L66.2197 45.2894L66.4641 44.2371L65.9265 44.9387Z" fill="#CB525F"/>
<path d="M95.924 44.0183L96.067 43.615L95.7094 43.7983L95.8167 43.4317L95.4948 43.615L95.6021 43.2483L95.2803 43.395L95.3876 43.065L95.0657 43.175L95.173 42.8817L94.8512 42.9917L94.9584 42.6983L94.6366 42.7717L94.7796 42.4783L94.422 42.515L94.5651 42.2217H94.2075L94.3863 42.0017L94.0287 41.965L94.2432 41.745L93.9214 41.7083L94.1002 41.4883L93.8141 41.415L93.9929 41.2683L93.7426 41.1583L93.9214 41.0117L93.6711 40.9017L93.8499 40.755L93.5995 40.645L93.7426 40.4983L93.528 40.3883L93.6711 40.2417L93.4565 40.1317L93.5995 39.985L93.385 39.875L93.528 39.7283L93.3492 39.6183L93.4923 39.4717L93.2777 39.3617L93.4207 39.215L93.2419 39.105L93.3492 38.995L93.1704 38.8483L93.2777 38.7383L93.1347 38.5917L93.2419 38.4817L93.0631 38.335L93.1704 38.225L93.0274 38.0783L93.1347 37.9683L92.9558 37.8217L93.0631 37.7117L92.9201 37.565L93.0274 37.455L92.8486 37.3083L92.9558 37.1983L92.8128 37.0517L92.9201 36.9417L92.777 36.795L92.8486 36.685L92.7055 36.5383L92.8128 36.4283L92.6698 36.2817L92.777 36.1717L92.634 36.025L92.7413 35.915L92.634 35.7683L92.7055 35.6583L92.5982 35.475L92.7055 35.4017L92.5982 35.2183L92.6698 35.145L92.5625 34.9617L92.6698 34.8883L92.5625 34.705L92.6698 34.595L92.5982 34.4117L92.7055 34.3383L92.634 34.1183L92.7413 34.045L92.7055 33.8617L92.777 33.7883V33.605L92.8486 33.5317V33.3117L92.9201 33.275V33.055L92.9916 33.0183V32.7983L93.0631 32.7617V32.5417L93.1347 32.505V32.285L93.2062 32.2483V32.065L93.2777 31.9917V31.8083L93.3492 31.735L93.385 31.5517L93.4565 31.4783V31.295L93.528 31.2217V31.0383L93.5995 30.965V30.7817L93.6711 30.745V30.525L93.7783 30.4883L93.7426 30.2683L93.8499 30.2317V30.0117L93.9571 29.975L93.9214 29.7183H94.0287L93.9929 29.4617H94.1359L94.1002 29.205H94.2432L94.1717 28.9483H94.3505L94.279 28.6917H94.4578L94.3863 28.3983L94.6008 28.4717L94.5293 28.1417L94.7796 28.215L94.7081 27.8483L94.9584 27.995V27.555L95.2088 27.7383V27.335L95.4233 27.555V27.1517L95.6379 27.3717L95.6736 26.9683L95.8524 27.225L95.8882 26.785L96.1028 27.0783V26.6017L96.3173 26.9317L96.3531 26.455L96.5677 26.8217V26.3083L96.7822 26.675L96.818 26.1617L97.0325 26.565L97.0683 26.015L97.2829 26.455V25.905L97.5332 26.345V25.795L97.7835 26.2717V25.685L97.9981 26.1983L98.0338 25.6117L98.2484 26.0883L98.2842 25.5383L98.4987 26.015L98.5345 25.465L98.7848 25.9783L98.8206 25.4283L99.0351 25.905L99.0709 25.355L99.2855 25.8317L99.3212 25.3183L99.5358 25.795L99.5715 25.2817L99.7861 25.7583L99.8576 25.245L100.036 25.685L100.108 25.2083L100.287 25.6483L100.358 25.1717L100.537 25.6117L100.644 25.135L100.823 25.575L100.895 25.135L101.073 25.5383L101.145 25.0983L101.324 25.5017L101.431 25.0617L101.574 25.465L101.681 25.025L101.824 25.4283L101.967 25.025L102.111 25.3917L102.218 24.9883L102.361 25.355L102.504 24.9517L102.611 25.3183L102.754 24.9517L102.897 25.3183L103.076 24.915L103.183 25.3183L103.398 24.915L103.469 25.2817L103.684 24.915L103.72 25.2817L103.934 24.915L104.006 25.2817L104.22 24.915L104.256 25.2817L104.471 24.915L104.506 25.3183L104.757 24.915L104.793 25.3183L105.007 24.9517L105.043 25.355L105.293 24.9517V25.355L105.544 24.9883L105.579 25.3917L105.83 24.9883V25.465L106.151 25.0617L106.116 25.5017L106.402 25.0983V25.575L106.688 25.1717L106.652 25.6117L106.974 25.245L106.938 25.685L107.26 25.3183L107.189 25.7583L107.51 25.3917L107.475 25.8317L107.796 25.465L107.725 25.9417L108.083 25.5383L107.975 26.015L108.369 25.6117L108.261 26.125L108.655 25.685L108.512 26.1983L108.941 25.795L108.762 26.3083L109.227 25.905L109.048 26.4183L109.513 26.015L109.298 26.565L109.799 26.125L109.549 26.675L110.049 26.2717L109.799 26.8217L110.3 26.4183L110.049 26.9683L110.55 26.565L110.264 27.115L110.8 26.7483L110.478 27.2983L111.051 26.9317L110.693 27.4817L111.265 27.1517L110.908 27.665L111.48 27.3717L111.086 27.9217L111.694 27.6283L111.229 28.215L111.945 27.995L111.444 28.4717L112.123 28.325L111.623 28.7283L112.267 28.6183L111.766 28.985L112.338 28.9117L111.873 29.2417L112.445 29.205L111.98 29.4983H112.517L112.052 29.755L112.553 29.7917L112.159 30.0117L112.624 30.0483L112.231 30.2683L112.66 30.3417L112.267 30.5617L112.731 30.5983L112.338 30.8183L112.767 30.855L112.41 31.075L112.839 31.1483L112.481 31.3317L112.91 31.405L112.553 31.5883L112.946 31.6617L112.624 31.845L113.017 31.9183L112.696 32.1017L113.089 32.175L112.767 32.3583L113.161 32.4317L112.803 32.615L113.268 32.6883L112.874 32.835L113.339 32.945L112.946 33.0917L113.411 33.2017L113.017 33.3483L113.482 33.4583L113.089 33.605L113.554 33.715L113.161 33.8983L113.625 33.9717L113.196 34.155L113.697 34.265L113.268 34.4117L113.768 34.5217L113.304 34.6683L113.804 34.7783L113.339 34.925L113.84 35.0717L113.375 35.2183L113.876 35.365L113.375 35.475L113.876 35.6583L113.375 35.7683L113.876 35.9883L113.339 36.0617L113.84 36.355L113.304 36.3917L113.733 36.7217H113.268L113.661 37.015L113.196 36.9783L113.554 37.2717H113.125L113.482 37.565L113.053 37.5283L113.375 37.8217L112.982 37.785L113.268 38.0783L112.874 38.0417L113.161 38.335L112.803 38.2983L113.089 38.5917L112.731 38.555L112.982 38.8483L112.624 38.8117L112.874 39.105L112.553 39.0683L112.803 39.3617L112.445 39.325L112.696 39.6183L112.374 39.5817L112.624 39.875L112.267 39.8383L112.517 40.1317L112.195 40.095L112.445 40.3883L112.088 40.3517L112.374 40.6817L112.016 40.6083L112.267 40.9383L111.909 40.865L112.195 41.195L111.802 41.1217L112.088 41.4883L111.694 41.3783L111.98 41.745L111.587 41.635L111.873 42.0383L111.444 41.8917L111.73 42.295L111.301 42.1117L111.587 42.5883L111.122 42.3683L111.408 42.8817L110.943 42.5883L111.158 43.175L110.729 42.845L110.908 43.4317L110.514 43.1017L110.657 43.6517L110.3 43.285L110.407 43.8717L110.049 43.4683L110.157 44.055L109.835 43.6517L109.906 44.2017L109.584 43.7983L109.656 44.385L109.334 43.945L109.406 44.5317L109.12 44.055L109.155 44.6417L108.869 44.2017L108.905 44.7883L108.619 44.3117V44.8983L108.369 44.4217V45.0083L108.118 44.5317V45.1183L107.868 44.6417V45.2283L107.618 44.715V45.3383L107.367 44.825L107.332 45.4117L107.117 44.8983L107.081 45.485L106.867 44.9717L106.831 45.5583L106.616 45.045L106.581 45.6317L106.366 45.1917V45.705L106.08 45.1183L106.044 45.7783L105.758 45.155L105.651 45.8517L105.472 45.265L105.329 45.8883L105.186 45.3383L105.043 45.8883L104.936 45.375L104.757 45.8883L104.65 45.375L104.471 45.8883L104.399 45.375L104.22 45.8883L104.113 45.375L103.934 45.8883L103.863 45.375L103.648 45.8883L103.577 45.375L103.398 45.8517L103.326 45.375L103.148 45.8517L103.076 45.375L102.862 45.8517L102.79 45.375L102.611 45.8517L102.54 45.375L102.325 45.8517L102.289 45.375L102.075 45.8883L102.003 45.375L101.789 45.8883L101.753 45.375L101.538 45.8883L101.503 45.3383L101.252 45.8883L101.217 45.3383L101.002 45.8883L100.966 45.3383L100.716 45.8883V45.3017L100.466 45.8517L100.43 45.3017L100.179 45.8517V45.265L99.9291 45.815V45.2283L99.6431 45.7417V45.1917L99.3927 45.705V45.1183L99.1424 45.6317V45.0817L98.8563 45.595L98.8921 45.0083L98.606 45.485V44.935L98.3199 45.4117L98.3557 44.8617L98.0696 45.3017L98.1054 44.7883L97.8193 45.1917L97.855 44.6783L97.5332 45.0817L97.6047 44.5683L97.2471 44.9717L97.3186 44.4583L96.9968 44.825L97.0683 44.3117L96.7107 44.6417L96.818 44.1283L96.3889 44.4583L96.5319 44.0183L96.1743 44.2383V44.165L96.1385 44.2017L96.2816 43.7983L95.924 44.0183ZM103.112 35.255L103.791 35.1817L103.148 34.9983L103.791 34.925L103.183 34.7783L103.827 34.6683L103.219 34.5217L103.827 34.4117L103.219 34.3017L103.791 34.1917L103.219 34.0817L103.756 33.9717L103.148 33.8617L103.684 33.715L103.112 33.6783L103.612 33.5317L103.076 33.495L103.541 33.3117H103.04L103.541 33.0917L102.969 33.1283L103.398 32.9083L102.933 32.9817L103.219 32.7983L102.897 32.8717L103.04 32.7983L102.897 32.835L103.005 32.725L102.897 32.7983L103.04 32.5783V32.5417L102.826 32.725L103.112 32.175L103.148 32.065L102.826 32.5417L102.79 32.615V32.5783L102.718 32.6883V32.4683L102.575 32.1017V32.615V32.6517L102.504 32.5417L102.289 32.3583L102.468 32.6883L102.432 32.6517V32.6883L101.86 32.4683L102.289 33.0183L101.86 32.9083L102.218 33.2017L101.824 33.1283L102.182 33.3483L101.753 33.3117L102.111 33.5317H101.681L102.075 33.7517H101.646L102.039 33.9717H101.574L102.039 34.1917L101.538 34.2283L102.003 34.4117L101.503 34.485L101.967 34.6683L101.503 34.705L101.932 34.925L101.467 34.9983L101.896 35.1817L101.431 35.255L101.896 35.4383L101.431 35.5483L101.86 35.7317L101.395 35.805L101.824 35.9883L101.395 36.0983L101.824 36.245L101.395 36.355L101.824 36.5017L101.395 36.6117L101.824 36.7583L101.431 36.905L101.824 37.015L101.431 37.1617L101.824 37.3083L101.503 37.4183L101.86 37.5283L101.574 37.675L101.896 37.7483L101.646 37.895H101.967L101.753 38.0783L102.039 38.0417L101.824 38.225L102.111 38.1883L102.075 38.2617L102.146 38.225L101.967 38.6283L102.468 38.4083L102.432 38.555L102.54 38.4817V38.775L102.754 38.445L102.826 38.775L102.969 38.445L103.005 38.5183V38.3717L103.291 38.775L103.326 38.2617L103.291 38.1517L103.541 38.2983L103.362 38.005L103.612 38.115L103.398 37.8583L103.72 37.9317L103.434 37.675L103.756 37.7483L103.469 37.4917L103.791 37.5283L103.434 37.3083H103.827L103.434 37.0883H103.863L103.398 36.8683H103.863L103.362 36.6483L103.863 36.6117L103.326 36.3917L103.863 36.355L103.255 36.135L103.863 36.0983L103.219 35.8783L103.827 35.8417L103.148 35.6217L103.362 35.585L103.076 35.5483L103.827 35.475L103.112 35.255Z" fill="#EF9C48"/>
<path d="M114.97 39.545H115.363L115.149 39.2517H115.506L115.328 38.9583L115.65 38.995L115.578 38.665L115.864 38.7383L115.828 38.4083L116.043 38.4817L116.007 38.1883L116.222 38.2617V38.005L116.4 38.0783L116.436 37.8217L116.615 37.895V37.6383L116.794 37.7117V37.4917L116.937 37.5283L116.973 37.3083L117.116 37.345V37.125H117.259V36.905H117.402L117.366 36.685H117.509L117.473 36.465H117.616L117.545 36.245H117.724L117.652 36.025L117.795 35.9883L117.688 35.7683L117.867 35.7317L117.759 35.5117L117.902 35.475L117.795 35.2917L117.938 35.2183L117.831 35.035L117.974 34.9617L117.867 34.7783L118.01 34.705L117.902 34.5217L118.045 34.4483L117.902 34.265L118.045 34.1917L117.902 34.0083L118.045 33.935L117.938 33.7517L118.045 33.6783L117.938 33.4583L118.081 33.385L117.938 33.2017L118.081 33.0917L117.938 32.9083L118.081 32.835L117.938 32.6517L118.081 32.5783L117.938 32.395L118.081 32.3217L117.938 32.1383L118.081 32.065L117.938 31.845L118.081 31.7717L117.938 31.5883L118.081 31.515L117.902 31.3317L118.045 31.2583L117.902 31.075L118.045 31.0017L117.902 30.8183L118.045 30.745L117.867 30.525L118.045 30.4517L117.867 30.2683L118.01 30.195L117.831 30.0117L118.01 29.9383L117.795 29.755L118.01 29.6817L117.795 29.4617L117.974 29.3883L117.759 29.205L117.938 29.1317L117.724 28.9483L117.938 28.875L117.688 28.655L117.938 28.5817L117.652 28.3617L117.938 28.325L117.652 28.0683L117.938 28.0317L117.652 27.775L117.974 27.7383L117.688 27.445H118.01L117.724 27.115L118.081 27.1517L117.795 26.785L118.296 26.895L118.01 26.2717L118.546 26.4917L118.403 25.795L118.796 26.1617L118.761 25.5017L119.083 25.9417L119.154 25.2817L119.404 25.7583L119.512 25.0983L119.726 25.6117L119.869 24.9517L120.048 25.5017L120.191 24.8783L120.334 25.4283L120.513 24.805L120.62 25.3917L120.799 24.7317L120.906 25.355L121.121 24.695L121.192 25.3183L121.407 24.695L121.478 25.2817L121.693 24.695L121.729 25.2817L121.943 24.695L122.015 25.2817L122.194 24.7317L122.265 25.2817L122.444 24.7317L122.516 25.355L122.73 24.7683L122.802 25.355L122.98 24.805L123.052 25.355L123.231 24.8417L123.302 25.3917L123.481 24.915L123.553 25.4283L123.731 24.9517L123.803 25.4283L123.982 24.9883L124.053 25.465L124.232 25.025L124.339 25.5017L124.482 25.0617L124.59 25.5017L124.768 25.0983L124.84 25.5383L125.019 25.135L125.09 25.5383L125.269 25.1717L125.341 25.5383L125.519 25.1717L125.591 25.575L125.77 25.1717L125.841 25.5383L126.02 25.1717L126.092 25.5383L126.27 25.1717L126.342 25.5383L126.521 25.135L126.592 25.5383L126.771 25.135L126.843 25.5017L127.021 25.0983L127.093 25.5017L127.272 25.0617L127.343 25.465L127.558 25.025L127.629 25.4283L127.808 24.9883L127.88 25.4283L128.058 24.9517L128.13 25.3917L128.309 24.915L128.38 25.3917L128.559 24.8783L128.631 25.3917L128.809 24.8783L128.881 25.355L129.06 24.8783L129.131 25.355L129.31 24.8417L129.382 25.355L129.56 24.8783L129.632 25.3917L129.811 24.8783L129.882 25.3917L130.061 24.8783L130.168 25.3917L130.347 24.915L130.419 25.4283L130.597 24.9517L130.669 25.4283L130.848 24.9517L130.919 25.4283L131.098 24.9883L131.17 25.465L131.348 24.9883L131.42 25.465L131.599 25.025L131.67 25.5017L131.885 25.0617L131.956 25.5017L132.135 25.0617L132.242 25.5017L132.421 25.0617L132.528 25.5017L132.707 25.0617L132.779 25.5383L132.993 25.0617L133.065 25.5383L133.315 25.0983L133.351 25.5383L133.601 25.0983L133.673 25.575L133.923 25.135L133.959 25.6117L134.245 25.1717V25.7217L134.638 25.245L134.603 25.795L135.067 25.355L134.924 25.9417L135.497 25.5383L135.246 26.1617L135.961 25.8683L135.568 26.455L136.319 26.3083L135.818 26.7483L136.534 26.785L136.033 27.0783L136.677 27.1883L136.14 27.445L136.748 27.555L136.248 27.775L136.82 27.9217L136.319 28.0683L136.855 28.2517L136.355 28.3617L136.855 28.545L136.391 28.655L136.855 28.875L136.391 28.9483L136.855 29.1683L136.391 29.2417L136.855 29.4617L136.391 29.535L136.855 29.7183L136.426 29.7917L136.855 30.0117L136.426 30.085L136.891 30.2683L136.426 30.3417L136.891 30.525L136.462 30.5983L136.927 30.8183L136.426 30.8917L136.963 31.075L136.498 31.1483L136.963 31.3317L136.498 31.405L136.999 31.5883L136.498 31.6617L137.034 31.845L136.534 31.9183L137.034 32.1017L136.534 32.175L137.034 32.3583L136.534 32.4317L137.034 32.615L136.534 32.6883L137.034 32.8717L136.534 32.945L137.034 33.1283L136.534 33.2017L137.034 33.385L136.498 33.4583L136.999 33.6417L136.498 33.715L136.999 33.8983L136.462 33.9717L136.963 34.155L136.462 34.2283L136.927 34.4117L136.462 34.485L136.891 34.6683L136.426 34.7417L136.891 34.925L136.426 34.9983L136.855 35.1817L136.391 35.255L136.82 35.4383L136.391 35.5117L136.784 35.695L136.355 35.7683L136.748 35.9517L136.355 36.025L136.712 36.2083L136.319 36.2817L136.712 36.465L136.319 36.5383L136.677 36.7217L136.319 36.795L136.677 36.9783L136.283 37.0517L136.641 37.235L136.283 37.3083L136.641 37.4917L136.283 37.565L136.641 37.7483L136.283 37.8217L136.641 38.005L136.283 38.0783L136.641 38.2617L136.283 38.335L136.677 38.5183L136.319 38.5917L136.677 38.775L136.319 38.8483L136.712 39.0683L136.319 39.1417L136.748 39.325L136.355 39.3983L136.748 39.5817L136.355 39.655L136.784 39.8383L136.391 39.9117L136.82 40.095L136.391 40.1683L136.82 40.3517L136.391 40.4617L136.855 40.645L136.391 40.7183L136.855 40.9017L136.426 40.975L136.855 41.1583L136.426 41.2317L136.855 41.415L136.391 41.4883L136.855 41.7083L136.355 41.8183L136.855 42.0383L136.319 42.1117L136.82 42.3683L136.283 42.405L136.784 42.735H136.248L136.712 43.1017L136.176 43.065L136.641 43.4683L136.104 43.395L136.498 43.7983L135.89 43.6517L136.283 44.2383L135.675 43.945L135.89 44.6417L135.389 44.2383L135.497 44.9717L135.103 44.495V45.155L134.781 44.6783L134.71 45.3017L134.46 44.7883L134.352 45.4117L134.138 44.8983L134.03 45.485L133.852 44.9717L133.709 45.5217L133.566 45.0083L133.387 45.5583L133.279 45.045L133.101 45.595L132.993 45.0817L132.815 45.595L132.743 45.0817L132.528 45.6317L132.457 45.1183L132.278 45.6317L132.207 45.155L131.992 45.6683L131.956 45.155L131.742 45.6683L131.67 45.1183L131.456 45.705L131.384 45.155L131.17 45.7417L131.098 45.155L130.883 45.7783L130.812 45.155L130.562 45.815L130.49 45.1183L130.204 45.815L130.168 45.0817L129.846 45.815V45.045L129.417 45.7783L129.489 44.9717L129.024 45.705L129.131 44.8983L128.631 45.595L128.881 44.5683L127.951 45.265L128.488 44.3483L127.45 44.7517L128.237 43.9817L126.986 44.0917L127.951 43.4683L126.735 43.285L127.486 42.9917L126.664 42.9183L127.415 42.6983L126.592 42.5517L127.343 42.405L126.556 42.2217L127.307 42.1117L126.521 41.9283L127.272 41.8183L126.521 41.5983L127.236 41.525L126.521 41.3417L127.236 41.2683L126.521 41.0483L127.2 41.0117L126.556 40.8283L127.2 40.755L126.556 40.5717L127.272 40.4983L126.556 40.2783L127.236 40.205L126.556 40.0217L127.236 39.9483L126.556 39.765L127.236 39.6917L126.556 39.4717L127.236 39.3983L126.592 39.215L127.236 39.1417L126.592 38.9583L127.272 38.885L126.592 38.7017L127.272 38.6283L126.628 38.445L127.272 38.3717L126.628 38.1517L127.272 38.0783L126.628 37.895L127.272 37.8217L126.664 37.6383L127.307 37.565L126.664 37.3817L127.307 37.3083L126.699 37.125L127.307 37.0517L126.699 36.8317L127.343 36.7583L126.735 36.575L127.343 36.5017L126.771 36.3183L127.343 36.245L126.771 36.0617L127.379 35.9883L126.807 35.805L127.379 35.695L126.843 35.5117L127.415 35.4383L126.843 35.255L127.415 35.1817L126.878 34.9983L127.486 34.925L126.914 34.6683L127.45 34.595L126.95 34.4117L127.45 34.3383L126.95 34.155L127.415 34.045L126.95 33.8983L127.379 33.825L126.95 33.715L127.343 33.605L126.95 33.5317L127.307 33.385L126.878 33.3483L127.272 33.165H126.878L126.807 33.2017L126.843 33.165L126.807 33.0917V33.165L126.771 33.0917L126.735 33.055L126.699 33.1283L126.664 32.945L126.592 32.8717L126.628 33.0183L126.771 33.2017L126.664 33.165V33.2017L126.556 33.1283L126.378 33.0917L126.699 33.385L126.378 33.3117L126.699 33.5317L126.306 33.495L126.699 33.715H126.235L126.699 33.9717H126.199L126.699 34.1917L126.199 34.2283L126.699 34.4117L126.199 34.485L126.735 34.6683L126.163 34.7417L126.735 34.9617L126.127 34.9983L126.735 35.2183L126.127 35.2917L126.735 35.5483L126.092 35.585L126.735 35.8417L126.127 35.8783L126.699 36.135L126.092 36.1717L126.664 36.3917L126.092 36.4283L126.628 36.685L126.056 36.7217L126.592 36.9417L125.984 36.9783L126.521 37.235H125.949L126.485 37.4917L125.913 37.5283L126.413 37.785H125.841L126.342 38.0417L125.805 38.0783L126.235 38.335H125.734L126.163 38.5917L125.662 38.6283L126.092 38.885H125.591L125.984 39.1783L125.519 39.1417L125.877 39.435H125.412L125.77 39.7283L125.341 39.6917L125.662 39.985L125.233 39.9483L125.555 40.2783L125.162 40.2417L125.412 40.535L125.055 40.4983L125.305 40.8283L124.947 40.755L125.198 41.085L124.84 41.0117L125.055 41.3783L124.697 41.2683L124.911 41.635L124.59 41.525L124.768 41.8917L124.447 41.7817L124.625 42.185L124.268 42.0383L124.447 42.4417L124.089 42.2583L124.232 42.735L123.874 42.4783L123.946 42.9917L123.624 42.735L123.696 43.2117L123.41 42.955L123.445 43.3583L123.195 43.1017V43.5417L122.945 43.2483V43.6517L122.694 43.3583L122.659 43.7983L122.444 43.505L122.408 43.8717L122.194 43.5783L122.158 43.9817L121.943 43.6883L121.872 44.055L121.693 43.7983L121.621 44.1283L121.443 43.8717L121.371 44.2017L121.192 43.945L121.085 44.275L120.906 44.0183L120.835 44.3483L120.656 44.0917L120.549 44.385L120.406 44.165L120.298 44.4583L120.155 44.2383L120.048 44.495L119.905 44.275L119.762 44.5683L119.619 44.3483L119.512 44.605L119.369 44.4217L119.226 44.6783L119.118 44.4583L118.975 44.715L118.868 44.495L118.689 44.7517L118.582 44.5683L118.403 44.7883L118.296 44.5683L118.117 44.825L118.01 44.605L117.831 44.825L117.759 44.605L117.545 44.825L117.473 44.605L117.259 44.825L117.187 44.605L116.973 44.7883L116.901 44.495L116.472 44.715V44.385L116.043 44.495L116.114 44.165L115.614 44.2017L115.757 43.8717L115.363 43.7983L115.542 43.615L115.22 43.505L115.435 43.3217L115.113 43.175L115.328 43.0283L115.006 42.845L115.256 42.6983L114.97 42.515L115.22 42.4417L114.934 42.2583L115.185 42.1483L114.899 41.965L115.149 41.8917L114.863 41.7083L115.149 41.635L114.863 41.415L115.113 41.3417L114.827 41.1583L115.113 41.085L114.827 40.9017L115.113 40.8283L114.827 40.6083L115.113 40.5717L114.827 40.3517L115.149 40.2783L114.827 40.0583L115.077 40.0217L114.827 39.8383H115.256L114.97 39.545ZM126.807 33.0183V32.8717L126.771 32.9083L126.807 33.0183Z" fill="#E18C36"/>
<path d="M139.361 40.7917L139.575 40.7183L139.254 40.535L139.504 40.4617L139.146 40.2783L139.432 40.205L139.003 40.0217L139.361 39.9483L138.896 39.765L139.325 39.655L138.896 39.4717L139.325 39.3983L138.896 39.215L139.325 39.1417L138.86 38.9583L139.325 38.885L138.86 38.7017L139.325 38.6283L138.825 38.445L139.289 38.3717L138.825 38.1883L139.289 38.115L138.825 37.9317L139.289 37.8583L138.825 37.675L139.289 37.6017L138.789 37.4183L139.289 37.345L138.789 37.1617L139.289 37.0883L138.789 36.905L139.289 36.8317L138.789 36.6117L139.254 36.5383L138.789 36.355L139.254 36.2817L138.753 36.0983L139.254 36.025L138.753 35.8417L139.254 35.7683L138.753 35.585L139.254 35.5117L138.753 35.3283L139.254 35.255L138.753 35.0717L139.254 34.9983L138.753 34.815L139.254 34.7417L138.753 34.5583L139.254 34.485L138.717 34.3017L139.254 34.2283L138.717 34.045L139.254 33.9717L138.717 33.7883L139.218 33.6783L138.717 33.495L139.218 33.4217L138.717 33.2383L139.218 33.165L138.717 32.9817L139.218 32.9083L138.681 32.725L139.218 32.6517L138.681 32.4683L139.218 32.395L138.681 32.2117L139.218 32.1383L138.681 31.955L139.218 31.8817L138.646 31.6983L139.182 31.625L138.646 31.4417L139.218 31.3683L138.61 31.1483L139.146 31.075L138.574 30.8917L139.146 30.8183L138.574 30.635L139.146 30.5617L138.538 30.3783L139.146 30.305L138.538 30.1217L139.146 30.0117L138.503 29.8283L139.146 29.755L138.503 29.535L139.146 29.4617L138.538 29.2783L139.146 29.205L138.538 28.985L139.182 28.9117L138.574 28.6917L139.218 28.655L138.61 28.3983L139.289 28.3617L138.681 28.0683H139.361L138.753 27.7383H139.432L138.86 27.4083L139.468 27.445L138.968 27.0783L139.754 27.1883L139.182 26.565L139.933 26.8217L139.54 26.125L140.005 26.4183L139.754 25.9417L140.362 26.345L140.183 25.5383L140.684 26.0883L140.72 25.355L141.006 25.8317L141.113 25.245L141.364 25.7583L141.507 25.2083L141.721 25.7217L141.9 25.2083L142.043 25.6483L142.222 25.2083L142.329 25.6117L142.508 25.2083L142.615 25.575L142.758 25.2083L142.865 25.575L143.044 25.2083L143.116 25.575L143.33 25.2083L143.402 25.575L143.581 25.2083L143.652 25.575L143.867 25.2083L143.903 25.575L144.117 25.2083L144.189 25.575L144.367 25.2083L144.439 25.575L144.653 25.1717L144.689 25.575L144.904 25.1717L144.975 25.575L145.154 25.1717L145.226 25.6117L145.476 25.1717L145.512 25.6117L145.798 25.2083L145.834 25.685L146.12 25.245V25.7217L146.442 25.3183L146.406 25.795L146.763 25.465L146.656 26.015L147.228 25.6483L147.049 26.235L147.657 26.015L147.336 26.455L147.908 26.3817L147.55 26.7483H148.086L147.693 27.0417L148.194 27.0783L147.8 27.335L148.301 27.445L147.908 27.6283L148.337 27.775L147.943 27.9217L148.373 28.105L147.979 28.215L148.408 28.435L148.051 28.5083L148.408 28.6917L148.051 28.8017L148.444 28.985L148.086 29.0583L148.48 29.2417L148.122 29.3517L148.516 29.535L148.158 29.6083L148.551 29.7917L148.194 29.865L148.623 30.0483L148.23 30.1217L148.659 30.305L148.301 30.415L148.73 30.525L148.408 30.5983L148.766 30.6717L148.587 30.745H148.837L148.694 30.855L148.873 30.7817L148.73 30.9283L148.945 30.855L148.802 31.0383L149.052 30.8917L148.909 31.1483L149.159 30.965L149.052 31.2217L149.231 31.0017L149.195 31.295L149.338 31.075V31.3683L149.481 31.1117V31.4417L149.624 31.1117L149.66 31.515L149.767 31.1483L149.875 31.515L149.982 31.1483L150.089 31.5517L150.196 31.1117L150.339 31.4417L150.375 31.075L150.59 31.405L150.554 31.0017L150.625 31.075L150.59 31.0383L150.661 31.075L150.625 30.965L150.983 31.1117L150.733 30.7817L151.019 30.855L150.804 30.5983L151.126 30.635L150.84 30.415H151.162L150.84 30.195H151.198L150.84 29.975L151.233 29.9383L150.84 29.755L151.233 29.7183L150.804 29.4983L151.233 29.4617L150.769 29.2417L151.198 29.205L150.733 28.985L151.198 28.9483L150.697 28.7283L151.198 28.655L150.661 28.3983L151.198 28.3617L150.625 28.105H151.233L150.59 27.775H151.269L150.59 27.4083L151.341 27.445L150.661 26.9683L151.484 27.115L150.769 26.4917L151.77 26.8217L151.126 25.795L151.984 26.4183L151.627 25.3183L152.414 26.0883L152.163 24.8783L152.771 25.8683L152.878 24.6583L153.164 25.4283L153.2 24.5483L153.486 25.355L153.558 24.475L153.772 25.2817L153.915 24.4017L154.094 25.245L154.273 24.365L154.38 25.1717L154.595 24.3283L154.666 25.0983L154.881 24.3283L154.952 25.0617L155.131 24.2917L155.203 25.0617L155.382 24.2917L155.489 25.025L155.632 24.2917L155.739 25.025L155.918 24.2917L155.99 25.025L156.133 24.2917L156.24 25.0617L156.419 24.2917L156.526 25.0617L156.705 24.2917L156.776 25.0983L156.991 24.3283L157.062 25.1717L157.313 24.365L157.384 25.2083L157.67 24.4383V25.3183L158.028 24.5483L157.956 25.4283L158.386 24.6583L158.278 25.5383L158.779 24.8783L158.564 25.685L159.136 25.0983L158.779 26.0517L159.78 25.575L159.28 26.3817L160.174 26.1983L159.709 26.6017L160.245 26.4917L159.673 26.9683L160.424 27.005L159.78 27.335L160.46 27.5917L159.959 27.7383L160.424 27.885L159.959 28.0317L160.388 28.215L159.959 28.325L160.352 28.5083L159.959 28.6183L160.317 28.8017L159.923 28.9117L160.245 29.095L159.887 29.1683L160.209 29.3883L159.887 29.4617L160.138 29.645L159.852 29.7183L160.102 29.9017L159.852 29.975L160.102 30.1583L159.816 30.2683L160.066 30.4517L159.816 30.525L160.066 30.7083L159.816 30.7817L160.066 30.965L159.816 31.0383L160.066 31.2217L159.852 31.295L160.102 31.4783L159.852 31.5517L160.138 31.7717L159.887 31.845L160.174 32.0283L159.887 32.1017L160.209 32.3217L159.923 32.395L160.245 32.5783L159.959 32.6517L160.317 32.835L159.995 32.9083L160.352 33.0917L159.995 33.165L160.388 33.385L160.03 33.4583L160.424 33.6417L160.066 33.715L160.495 33.8983L160.066 33.9717L160.531 34.155L160.102 34.2283L160.567 34.4483L160.138 34.5217L160.603 34.705L160.138 34.7783L160.638 34.9617L160.174 35.035L160.674 35.2183L160.174 35.2917L160.71 35.5117L160.209 35.585L160.71 35.7683L160.209 35.8417L160.746 36.025L160.245 36.0983L160.781 36.2817L160.245 36.3917L160.781 36.575L160.245 36.6483L160.817 36.8317L160.245 36.905L160.817 37.0883L160.245 37.1617L160.817 37.345L160.245 37.455L160.817 37.6383L160.245 37.7117L160.817 37.895L160.245 37.9683L160.817 38.1517L160.245 38.225L160.817 38.4083L160.245 38.5183L160.781 38.7017L160.245 38.775L160.781 38.9583L160.245 39.0317L160.746 39.215L160.209 39.2883L160.746 39.5083L160.209 39.5817L160.71 39.765L160.209 39.8383L160.674 40.0217L160.174 40.095L160.638 40.2783L160.174 40.3517L160.638 40.535L160.138 40.6083L160.603 40.7917L160.138 40.865L160.567 41.0483L160.102 41.1217L160.531 41.305L160.102 41.3783L160.495 41.5617L160.066 41.635L160.495 41.855L160.03 41.9283L160.46 42.1117L159.995 42.2217L160.424 42.4417L159.959 42.515L160.388 42.7717L159.923 42.8083L160.317 43.1017H159.852L160.209 43.4683L159.744 43.4317L160.066 43.7983L159.53 43.6883L159.816 44.2383L159.351 44.0183L159.458 44.5683L159.029 44.2017L158.922 45.0083L158.564 44.5317L158.35 45.155L158.171 44.7517L157.992 45.265L157.813 44.825L157.599 45.3017L157.491 44.8617L157.277 45.3383L157.17 44.935L156.991 45.4117L156.884 44.9717L156.705 45.4483L156.633 45.0083L156.419 45.485L156.347 45.045L156.168 45.5217L156.097 45.0817L155.882 45.595L155.811 45.1183L155.632 45.6317L155.56 45.155L155.346 45.705L155.274 45.1917L155.096 45.7417L155.024 45.2283L154.809 45.815L154.738 45.265L154.559 45.8883L154.488 45.2283L154.237 45.9617L154.166 45.265L153.915 46.035L153.88 45.2283L153.558 46.0717V45.1917L153.129 46.0717L153.2 45.1183L152.664 46.0717L152.843 45.045L152.235 45.9983L152.557 44.7517L151.519 45.7417L152.163 44.4217L150.804 45.155L151.698 44.2383L150.411 44.6417L151.412 43.945L150.125 44.165L151.162 43.6517L149.946 43.7617L151.055 43.3217H149.803L151.019 42.955L149.696 42.8083L150.947 42.5883L149.624 42.3317L150.769 42.185L149.588 41.965L150.661 41.855L149.588 41.635L150.554 41.5617L149.588 41.3783L150.518 41.2683L149.588 41.1217L150.518 41.0117L149.588 40.865L150.518 40.755L149.588 40.6083L150.518 40.4983L149.624 40.3517L150.518 40.2783L149.624 40.095L150.018 40.0583L150.053 40.0217L149.66 39.985L150.018 39.9117V39.875L149.875 39.9117L149.839 39.9483V39.8383H149.66L149.839 39.8017V39.6183H149.696L149.624 39.875L149.553 39.2517L149.445 39.875L149.374 39.435L149.338 39.8383L149.267 39.6183V39.8383V39.765V39.8017L149.231 39.7283V39.8017L149.195 39.765L149.088 39.6917L149.052 39.655H148.837L149.195 39.765L148.587 39.8017L149.195 39.985L148.48 40.0583L149.159 40.2783L148.48 40.3517L149.159 40.5717L148.48 40.645L149.159 40.8283L148.48 40.9017L149.124 41.1217L148.444 41.195L149.124 41.415L148.444 41.4883L149.124 41.6717L148.444 41.745L149.124 42.0017L148.408 42.0383L149.124 42.295L148.373 42.3317L149.088 42.625L148.265 42.6617L149.052 43.065L148.194 43.0283L148.98 43.5417L148.158 43.395L148.873 43.945L147.765 43.6883L148.516 44.715L147.55 44.0917L147.943 45.265L147.157 44.495L147.336 45.705L146.763 44.715L146.62 45.8883L146.37 45.0817L146.263 45.9617L146.048 45.1183L145.869 45.9617L145.726 45.1917L145.512 45.9617L145.404 45.2283L145.226 45.925L145.118 45.2283L144.904 45.925L144.832 45.265L144.653 45.8883L144.546 45.2283L144.367 45.815L144.296 45.1917L144.117 45.7783L144.01 45.1917L143.831 45.7417L143.759 45.155L143.545 45.6683L143.473 45.1183L143.295 45.595L143.187 45.0817L143.008 45.5583L142.937 45.045L142.722 45.485L142.651 45.0083L142.436 45.4117L142.365 44.935L142.15 45.3383L142.114 44.8983L141.9 45.265L141.828 44.825L141.578 45.1917L141.542 44.715L141.185 45.0817L141.22 44.6417L140.863 44.8983L140.899 44.5683L140.648 44.7517L140.72 44.3483L140.219 44.495L140.398 44.0917L139.933 44.055L140.148 43.7617L139.647 43.615L139.969 43.3583L139.54 43.0283L139.79 42.8817L139.468 42.6983L139.719 42.5517L139.468 42.3683L139.719 42.2583L139.468 42.0383L139.683 41.965L139.468 41.745L139.683 41.6717L139.468 41.4517L139.683 41.3783L139.504 41.1583L139.575 41.1217L139.504 41.085L139.647 41.0117L139.361 40.7917ZM149.803 39.1417L149.696 39.5817L149.839 39.545L149.803 39.1417ZM149.982 39.5083L150.018 39.4717V39.3617L149.982 39.5083ZM149.91 39.765L150.018 39.7283V39.6183H149.946L149.91 39.765ZM149.875 39.9117L149.91 39.8383H149.875V39.9117ZM150.053 39.9117H150.089V39.875L150.053 39.8383V39.9117ZM150.053 40.0583H150.232L150.125 40.0217L150.053 40.0583Z" fill="#EC8560"/>
<path d="M162.215 42.3683L162.859 42.295L162.251 42.1117L162.859 42.0017L162.322 41.855L162.894 41.745L162.358 41.5617L162.894 41.4883L162.394 41.305L162.93 41.2317L162.394 41.0483L162.93 40.975L162.394 40.7917L162.93 40.7183L162.43 40.535L162.966 40.4617L162.465 40.2783L162.966 40.205L162.465 40.0217L163.002 39.9483L162.501 39.765L163.002 39.6917L162.573 39.5083L163.037 39.435L162.608 39.2517L163.037 39.1783L162.644 38.995L163.073 38.9217L162.68 38.7383L163.109 38.665L162.716 38.4817L163.109 38.4083L162.751 38.225L163.145 38.1517L162.751 37.9683L163.145 37.895L162.787 37.7117L163.145 37.6017L162.787 37.455L163.145 37.345L162.787 37.1617L163.145 37.0883L162.787 36.905L163.145 36.8317L162.787 36.6483L163.145 36.575L162.787 36.3917L163.145 36.3183L162.751 36.135L163.145 36.0617L162.751 35.8783L163.109 35.805L162.716 35.6217L163.109 35.5483L162.68 35.365L163.073 35.2917L162.644 35.1083L163.073 35.035L162.608 34.8517L163.037 34.7783L162.608 34.595L163.037 34.5217L162.573 34.3383L163.037 34.265L162.573 34.0817L163.002 34.0083L162.537 33.825L163.002 33.7517L162.537 33.5683L163.002 33.495L162.537 33.3117L163.002 33.2383L162.573 33.055L163.037 32.9817L162.573 32.7983L163.037 32.725L162.573 32.5417L163.037 32.4683L162.573 32.285L163.037 32.2117L162.573 32.0283L163.073 31.9183L162.608 31.735L163.037 31.6617L162.608 31.4783L163.073 31.3683L162.608 31.185L163.073 31.1117L162.608 30.9283L163.073 30.855L162.608 30.6717L163.073 30.5983L162.608 30.415L163.037 30.305L162.608 30.1217L163.037 30.0483L162.573 29.865L163.037 29.7917L162.573 29.6083L163.037 29.535L162.537 29.3517L163.002 29.2783L162.537 29.0583L163.002 28.985L162.501 28.8017L163.037 28.7283L162.465 28.5083L163.037 28.435L162.465 28.1783L163.037 28.105L162.43 27.8483L163.037 27.8117L162.43 27.5183L163.288 27.4817L162.465 26.8217L163.359 26.9317L162.716 26.1983L163.324 26.455L163.073 26.125L162.823 25.9417L162.966 25.9783L162.894 25.8683L163.18 26.015L162.894 25.7583L163.896 26.1617L163.574 25.0983L163.896 25.7217L163.86 24.9517L164.218 25.6483V24.805L164.575 25.575L164.647 24.6583L164.933 25.465L165.076 24.5483L165.255 25.3183L165.433 24.475L165.541 25.2083L165.719 24.4383L165.827 25.135L166.006 24.4017L166.113 25.0983L166.292 24.3283L166.363 25.0617L166.542 24.2917L166.649 25.025L166.828 24.255L166.9 25.025L167.078 24.1817L167.15 24.9883L167.364 24.145L167.436 24.9517L167.615 24.1083L167.686 24.9517L167.901 24.0717L167.937 24.915L168.151 24.0717L168.223 24.915L168.402 24.035L168.473 24.8783L168.652 24.035L168.723 24.8783L168.902 23.9983L168.974 24.8417L169.152 23.9983L169.224 24.8783L169.439 23.9983L169.51 24.9883L169.76 23.9983L169.832 25.1717L170.19 24.035L170.154 25.465L170.905 24.1817L170.583 25.5017L171.477 24.475L170.94 25.905L172.299 24.9883L171.334 26.2717L172.907 25.9417L171.906 26.5283L173.05 26.3817L171.942 26.9317H173.193L172.049 27.2983L173.229 27.445L172.228 27.665L173.229 27.8483L172.335 27.995L173.229 28.1783L172.335 28.2883L173.193 28.4717L172.335 28.5817L173.158 28.765L172.371 28.875L173.122 29.0583L172.371 29.1317L173.086 29.315L172.371 29.3883L173.05 29.5717L172.407 29.645L173.05 29.7917L172.442 29.9017L173.015 29.975L172.621 30.085H172.8L172.764 30.1217H173.015L172.8 30.195L172.764 30.305H172.907L172.943 30.2317V30.305H173.015L172.943 30.3417L172.979 30.855L173.229 30.3417V30.855L173.444 30.415L173.479 30.9283L173.694 30.4883L173.766 31.0017L173.944 30.5617L174.016 31.0383L174.195 30.5983L174.302 31.075L174.481 30.6717L174.552 31.1483L174.767 30.745L174.838 31.185L175.053 30.8183L175.124 31.2217L175.339 30.8917L175.411 31.295L175.661 31.0017L175.697 31.3683L175.983 31.1117V31.4417L176.233 31.2583V31.5517L176.483 31.3683V31.6617L176.734 31.515V31.735L176.948 31.625L176.984 31.845L177.199 31.7717V31.955L177.449 31.8817V32.1017L177.663 32.0283L177.699 32.2117L177.914 32.1383V32.3217L178.128 32.2483L178.164 32.4317L178.379 32.395V32.5417L178.593 32.505L178.629 32.6517L178.844 32.615L178.879 32.7617L179.094 32.725V32.8717H179.308L179.344 32.9817H179.559V33.1283L179.773 33.0917L179.809 33.2383H180.024V33.385L180.238 33.3483V33.495H180.489V33.6417H180.703V33.825H180.953L180.918 33.9717L181.204 34.0083L181.096 34.1917L181.418 34.265L181.311 34.4117L181.597 34.485L181.49 34.6683L181.776 34.7417L181.633 34.8883L181.955 34.9617L181.776 35.145L182.098 35.2183L181.919 35.4017L182.241 35.475L182.026 35.6583L182.348 35.7683L182.134 35.915L182.491 36.025L182.241 36.2083L182.598 36.3183L182.312 36.5017L182.67 36.6483L182.384 36.795L182.741 36.9417L182.455 37.0883L182.777 37.235L182.491 37.345L182.777 37.565L182.491 37.6383L182.777 37.8583L182.455 37.9317L182.777 38.1883L182.455 38.2617L182.741 38.5183L182.42 38.5917L182.67 38.8117L182.384 38.885L182.598 39.1417L182.348 39.1783L182.527 39.435L182.277 39.4717L182.42 39.7283L182.169 39.765L182.312 40.0217L182.062 40.0583L182.205 40.3517H181.955L182.062 40.645H181.812L181.883 40.9383H181.669L181.74 41.2317L181.526 41.195L181.561 41.4883H181.347V41.745L181.168 41.7083V41.965H180.989L180.953 42.185L180.81 42.1483L180.739 42.405L180.596 42.3683L180.524 42.625L180.381 42.5883L180.274 42.8083L180.131 42.7717L180.024 42.955L179.916 42.8817L179.809 43.1017L179.702 43.0283L179.559 43.2117L179.451 43.1383L179.344 43.3217L179.237 43.2117L179.094 43.4317L178.987 43.3217L178.844 43.5417L178.736 43.4317L178.629 43.615L178.522 43.505L178.379 43.725L178.271 43.5783L178.128 43.835L178.021 43.6883L177.878 43.9083L177.771 43.7617L177.663 44.0183L177.556 43.835L177.413 44.0917L177.306 43.9083L177.163 44.165L177.056 43.9817L176.912 44.2383L176.805 44.055L176.662 44.3483L176.555 44.1283L176.448 44.4217L176.305 44.165L176.197 44.495L176.054 44.2383L175.947 44.5683L175.84 44.3117L175.697 44.6417L175.589 44.3483L175.446 44.715L175.339 44.4217L175.196 44.7883L175.089 44.495L174.946 44.8617L174.838 44.5317L174.695 44.8983L174.588 44.605L174.445 44.9717L174.338 44.6417L174.195 45.045L174.087 44.6783L173.944 45.0817L173.837 44.7517L173.694 45.155L173.587 44.7883L173.444 45.1917L173.336 44.825L173.193 45.265L173.086 44.8617L172.943 45.3017L172.836 44.8983L172.693 45.3383L172.585 44.935L172.442 45.375L172.299 44.9717L172.156 45.4117L172.049 44.9717L171.87 45.4483L171.763 44.9717L171.548 45.4483L171.477 45.0083L171.298 45.485L171.227 45.045L171.012 45.485L170.94 45.045L170.726 45.5217L170.654 45.045L170.476 45.5217L170.404 45.045L170.19 45.5217L170.118 45.045L169.939 45.5583L169.868 45.0817L169.653 45.5583L169.582 45.0817L169.367 45.595L169.296 45.1183L169.117 45.595L169.045 45.1183L168.866 45.595L168.795 45.1183L168.616 45.6317L168.545 45.1183L168.366 45.6317L168.294 45.155L168.08 45.6683L168.008 45.155L167.829 45.6683L167.758 45.155L167.579 45.705L167.507 45.155L167.329 45.705L167.257 45.1917L167.078 45.705L167.007 45.1917L166.828 45.7417L166.757 45.1917L166.542 45.7417L166.47 45.1917L166.292 45.7783L166.22 45.1917L166.041 45.7783L165.97 45.155L165.719 45.815L165.684 45.155L165.433 45.815L165.362 45.1183L165.076 45.7783V45.0817L164.718 45.7417L164.754 45.0083L164.361 45.6683L164.468 44.6783L163.645 45.4483L164.039 44.495L163.073 44.8983L163.717 44.2017L162.608 44.385L163.431 43.725L162.322 43.6517L163.109 43.3583L162.251 43.2117L163.002 43.0283L162.215 42.8083L162.644 42.735L162.215 42.6617L162.859 42.5517L162.215 42.3683ZM183.671 40.975L184.136 40.9017L183.635 40.7183L184.136 40.645L183.635 40.4617L184.136 40.3883L183.635 40.205L184.136 40.1317L183.635 39.9483L184.136 39.875L183.635 39.6917L184.136 39.6183L183.671 39.435L184.136 39.3617L183.671 39.1783L184.172 39.105L183.707 38.9217L184.172 38.8483L183.707 38.665L184.172 38.5917L183.743 38.4083L184.208 38.335L183.743 38.1517L184.208 38.0783L183.779 37.895L184.208 37.8217L183.779 37.6383L184.208 37.565L183.779 37.3817L184.208 37.3083L183.779 37.125L184.208 37.0517L183.779 36.8683L184.208 36.7583L183.743 36.575L184.172 36.5017L183.743 36.3183L184.172 36.245L183.707 36.0617L184.172 35.9883L183.707 35.805L184.136 35.7317L183.671 35.5483L184.136 35.475L183.635 35.2917L184.136 35.2183L183.635 35.035L184.1 34.9617L183.635 34.7783L184.1 34.705L183.6 34.5217L184.1 34.4483L183.6 34.265L184.1 34.1917L183.6 34.0083L184.1 33.935L183.635 33.7517L184.136 33.6783L183.635 33.495L184.136 33.4217L183.671 33.2383L184.136 33.165L183.671 32.9817L184.172 32.9083L183.707 32.725L184.172 32.6517L183.743 32.4683L184.208 32.395L183.779 32.2117L184.208 32.1383L183.814 31.955L184.243 31.8817L183.814 31.6983L184.243 31.625L183.85 31.4417L184.243 31.3683L183.85 31.185L184.279 31.1117L183.886 30.9283L184.279 30.855L183.886 30.6717L184.279 30.5617L183.886 30.3417L184.279 30.2683L183.85 30.085L184.279 30.0117L183.85 29.7917L184.243 29.7183L183.814 29.535L184.243 29.425L183.779 29.2417L184.208 29.1683L183.779 28.9483L184.208 28.875L183.743 28.655L184.208 28.5817L183.707 28.3617L184.208 28.2883L183.671 28.0683L184.208 27.995L183.671 27.7383L184.315 27.7017L183.671 27.2983L184.351 27.335L183.779 26.8583L184.422 26.9317L183.886 26.455L184.744 26.6383L184.243 25.7583L184.959 26.2717L184.816 25.3183L185.316 25.9417V25.025L185.745 25.7583L185.924 24.8417L186.139 25.5383L186.353 24.805L186.496 25.465L186.711 24.805L186.818 25.3917L187.033 24.805L187.104 25.355L187.283 24.805L187.39 25.355L187.569 24.805L187.641 25.355L187.855 24.805L187.927 25.355L188.106 24.805L188.177 25.355L188.392 24.8417L188.463 25.3917L188.642 24.8417L188.713 25.3917L188.928 24.8417L189 25.3917L189.178 24.8417L189.25 25.3917L189.464 24.8783L189.536 25.3917L189.715 24.8783L189.786 25.3917L190.001 24.8783L190.072 25.3917L190.251 24.8783L190.358 25.465L190.609 24.8783L190.68 25.5017L190.966 24.915L191.038 25.575L191.395 24.9517L191.36 25.6117L191.789 25.0617L191.682 25.905L192.504 25.3183L192.146 26.125L192.969 25.905L192.433 26.4183L193.327 26.455L192.719 26.9317L193.47 27.0417L192.933 27.225L193.505 27.4083L193.005 27.5183L193.505 27.7017L193.005 27.8117L193.505 27.995L193.04 28.105L193.505 28.2883L193.04 28.3983L193.505 28.5817L193.04 28.655L193.47 28.8383L193.04 28.9117L193.47 29.1317L193.04 29.205L193.434 29.3883L193.005 29.4617L193.434 29.645L193.005 29.7183L193.398 29.9383L193.005 29.975L193.362 30.195L192.969 30.2683L193.327 30.4517L192.969 30.525L193.327 30.7083L192.933 30.7817L193.291 30.965L192.933 31.0383L193.291 31.2217L192.933 31.295L193.255 31.4783L192.897 31.5517L193.255 31.7717L192.897 31.845L193.255 32.0283L192.897 32.1017L193.219 32.285L192.897 32.3583L193.219 32.5417L192.897 32.6517L193.219 32.835L192.897 32.9083L193.219 33.0917L192.897 33.165L193.219 33.3483L192.897 33.4217L193.219 33.605L192.897 33.6783L193.219 33.8617L192.897 33.935L193.219 34.1183L192.897 34.1917L193.255 34.375L192.897 34.485L193.255 34.6683L192.897 34.7417L193.255 34.925L192.933 34.9983L193.255 35.1817L192.933 35.255L193.291 35.4383L192.933 35.5117L193.291 35.695L192.933 35.7683L193.327 35.9517L192.969 36.025L193.362 36.245L192.969 36.3183L193.398 36.5017L193.005 36.575L193.398 36.7583L193.005 36.8317L193.434 37.015L193.04 37.0883L193.47 37.2717L193.04 37.345L193.47 37.5283L193.04 37.6017L193.505 37.785L193.076 37.895L193.505 38.0783L193.076 38.1517L193.505 38.335L193.076 38.4083L193.505 38.5917L193.04 38.665L193.505 38.885L193.04 38.9583L193.47 39.1417L193.04 39.215L193.434 39.3983L193.005 39.4717L193.398 39.655L193.005 39.7283L193.362 39.9117L192.969 39.985L193.327 40.1683L192.933 40.2417L193.291 40.425L192.897 40.4983L193.219 40.6817L192.897 40.755L193.184 40.9383L192.862 41.0117L193.148 41.195L192.826 41.2683L193.076 41.4517L192.79 41.525L193.04 41.7083L192.754 41.7817L193.005 42.0383L192.719 42.1117L192.969 42.3683L192.683 42.4417L192.897 42.6983L192.647 42.7717L192.862 43.0283L192.54 43.1017L192.754 43.5417H192.433L192.504 43.8717L192.325 43.835L192.361 44.1283L192.111 44.055V44.4217L191.896 44.275L191.789 44.605L191.646 44.4217L191.503 44.715L191.36 44.5317L191.252 44.825L191.109 44.605L190.966 44.8983L190.823 44.6783L190.68 44.9717L190.573 44.7517L190.394 45.0083L190.287 44.7517L190.108 45.045L190.037 44.7883L189.822 45.0817L189.751 44.7883L189.572 45.0817L189.5 44.825L189.321 45.0817L189.25 44.825L189.071 45.0817L189 44.7883L188.821 45.0817L188.713 44.825L188.57 45.0817L188.463 44.825L188.284 45.1183L188.213 44.825L188.034 45.1183L187.962 44.825L187.784 45.1183L187.676 44.825L187.498 45.1183L187.426 44.825L187.247 45.1183L187.176 44.825L186.961 45.1183L186.89 44.825L186.675 45.1183L186.639 44.7883L186.389 45.0817L186.353 44.7883L186.103 45.0817L186.067 44.5683L185.459 44.9717L185.531 44.4217L184.887 44.605L185.102 44.1283L184.458 44.275L184.851 43.835L184.172 43.725L184.565 43.4683L183.993 43.3583L184.458 43.1383L183.886 42.9917L184.351 42.8083L183.814 42.625L184.279 42.4783L183.743 42.295L184.243 42.185L183.707 41.965L184.208 41.855L183.671 41.635L184.172 41.5617L183.671 41.3783L183.886 41.3417L183.671 41.2683L184.172 41.195L183.671 40.975ZM172.585 30.305H172.621L172.693 30.2683V30.2317L172.621 30.2683L172.585 30.305ZM172.729 30.4517V30.7083L172.872 30.3783L172.729 30.4517ZM172.764 38.8117L172.836 39.1417L173.015 38.8117L173.086 39.0683L173.229 38.7383L173.336 39.0317L173.444 38.665L173.551 38.9583L173.623 38.5917L173.766 38.885L173.801 38.4817L174.016 38.885L174.087 38.4083L173.98 38.445L174.087 38.3717L174.052 38.335L174.016 38.2617L174.195 38.335H174.23L174.195 38.2617H173.837L174.087 38.1517L173.73 38.1883L173.944 38.115L174.016 38.005L173.837 38.0417L173.944 37.9683H173.694L173.837 37.895L173.98 37.565L173.73 37.8217L173.837 37.4917L173.658 37.7483L173.694 37.2717L173.479 37.6383L173.515 37.1983L173.301 37.5283V37.125L173.122 37.455L173.086 37.0517L172.943 37.3817L172.836 36.9783L172.729 37.345L172.621 36.9783L172.514 37.2717L172.335 37.015L172.299 37.345L172.085 37.125V37.3817L171.906 37.2717L172.013 37.565L171.727 37.4917L171.87 37.7483L171.548 37.785L171.835 38.115L171.656 38.1883L171.799 38.2617L171.584 38.3717L171.942 38.5183L171.691 38.7383L171.763 38.775L171.906 38.6283L171.87 38.8117H171.906L172.085 38.7017V38.7383L172.121 38.7017L172.085 38.885H172.121L172.049 38.9583V38.995L172.371 38.8117L172.335 38.995L172.514 38.8483V39.1417L172.764 38.8117ZM174.23 37.7117V37.6383L174.195 37.675L174.23 37.7117ZM173.98 37.8217L174.159 37.7483H174.123L173.98 37.8217ZM174.23 38.005L174.302 37.9683H174.195L174.159 38.005H174.23ZM174.338 38.2617V38.225H174.302L174.338 38.2617Z" fill="#FD653E"/>
<path d="M195.647 41.7817L196.076 41.6717L195.719 41.4883L196.112 41.415L195.79 41.2317L196.184 41.1583L195.862 40.975L196.22 40.9017L195.933 40.7183L196.22 40.645L195.933 40.4617L196.255 40.3883L196.005 40.205L196.291 40.095L196.076 39.9483L196.327 39.8383L196.112 39.6917L196.363 39.5817L196.184 39.3983L196.398 39.325L196.22 39.1417L196.398 39.0683L196.291 38.885L196.434 38.8117L196.327 38.6283L196.47 38.555L196.363 38.3717L196.47 38.2983L196.398 38.115L196.506 38.0417L196.434 37.8583L196.506 37.7483L196.434 37.6017L196.506 37.4917L196.434 37.345L196.506 37.235L196.434 37.0517L196.506 36.9783L196.434 36.795L196.506 36.7217L196.434 36.5383L196.506 36.465L196.398 36.2817L196.47 36.2083L196.398 36.025L196.47 35.9517L196.363 35.7683L196.47 35.695L196.327 35.5117L196.434 35.4383L196.327 35.255L196.434 35.1817L196.291 34.9983L196.434 34.925L196.291 34.705L196.398 34.6317L196.255 34.4483L196.398 34.375L196.255 34.1917L196.398 34.1183L196.255 33.935L196.398 33.8617L196.255 33.6783L196.398 33.605L196.255 33.4217L196.398 33.3483L196.291 33.165L196.434 33.0917L196.291 32.9083L196.434 32.835L196.291 32.6517L196.434 32.5417L196.291 32.3583L196.434 32.285L196.291 32.1017L196.434 32.0283L196.291 31.8083L196.434 31.735L196.291 31.5517L196.434 31.4783L196.291 31.2583L196.398 31.185L196.255 31.0017L196.398 30.9283L196.255 30.745L196.398 30.6717L196.22 30.4517L196.398 30.3783L196.22 30.195L196.363 30.1217L196.184 29.9017L196.363 29.8283L196.148 29.645L196.327 29.5717L196.112 29.3517L196.291 29.315L196.041 29.095L196.291 29.0217L196.005 28.8017L196.255 28.7283L195.969 28.5083L196.255 28.435L195.933 28.1783L196.255 28.105L195.898 27.8483L196.255 27.8117L195.898 27.4817H196.291L195.969 27.0783L196.363 27.1517L196.041 26.7483L196.47 26.8217L196.184 26.3817L196.72 26.6017L196.47 25.9417L196.935 26.2717L196.863 25.6483L197.292 26.125L197.435 25.3183L197.793 25.8683L198.043 25.1717L198.186 25.6117L198.329 25.0983L198.472 25.5383L198.651 25.0617L198.759 25.5017L198.937 25.025L199.009 25.465L199.188 24.9883L199.295 25.465L199.474 24.9517L199.545 25.4283L199.76 24.9517L199.831 25.4283L200.01 24.9517L200.082 25.4283L200.26 24.9517L200.332 25.4283L200.511 24.9517L200.582 25.465L200.797 24.9517L200.868 25.4283L201.047 24.9517L201.119 25.465L201.333 24.9517L201.405 25.465L201.619 24.9883L201.691 25.5383L201.941 24.9883L202.013 25.575L202.335 25.025V25.6483L202.728 25.0983L202.692 25.795L203.264 25.2817L203.086 25.9417L203.693 25.575L203.407 26.235L204.23 25.9783L203.765 26.565H204.587L204.123 26.895L204.731 26.9317L204.23 27.225L204.838 27.2983L204.337 27.5183L204.874 27.6283L204.409 27.8117L204.909 27.9583L204.444 28.105L204.945 28.2517L204.48 28.3617L204.945 28.5817L204.48 28.655L204.981 28.8383L204.516 28.9117L204.981 29.095L204.516 29.1683L204.981 29.3517L204.516 29.425L205.017 29.645L204.552 29.7183L205.017 29.9017L204.552 29.975L205.052 30.1583L204.552 30.2317L205.052 30.415L204.587 30.4883L205.088 30.6717L204.587 30.745L205.088 30.9283L204.587 31.0017L205.124 31.185L204.623 31.2583L205.124 31.4417L204.623 31.515L205.16 31.6983L204.623 31.7717L205.16 31.9917L204.623 32.065L205.195 32.2483L204.659 32.3217L205.195 32.505L204.659 32.5783L205.195 32.7617L204.659 32.835L205.195 33.0183L204.659 33.0917L205.231 33.275L204.659 33.3483L205.231 33.5317L204.659 33.605L205.231 33.7883L204.659 33.8617L205.231 34.045L204.695 34.1183L205.267 34.3017L204.695 34.375L205.267 34.5583L204.695 34.6317L205.267 34.815L204.695 34.8883L205.267 35.0717L204.695 35.1817L205.267 35.365L204.695 35.4383L205.267 35.6217L204.659 35.695L205.267 35.915L204.695 35.9883L205.303 36.1717L204.695 36.2817L205.303 36.4283L204.766 36.5383L205.303 36.685L204.766 36.795L205.338 36.905L204.838 37.015L205.16 37.0883H205.195L205.16 37.0517L205.231 37.0883H205.303L205.16 36.9783L205.374 37.015H205.446V36.9783L205.481 37.015H205.66L205.195 36.795H205.732L205.231 36.6117L205.803 36.575L205.267 36.355L205.839 36.2817L205.267 36.0983L205.875 36.025L205.303 35.805L205.875 35.7317L205.303 35.5483L205.911 35.475L205.338 35.2917L205.911 35.1817L205.338 34.9983L205.911 34.925L205.374 34.705L205.946 34.6317L205.374 34.4483L205.946 34.3383L205.41 34.155L205.911 34.0817L205.41 33.8983L205.946 33.825L205.41 33.6417L205.946 33.5683L205.446 33.385L205.946 33.275L205.446 33.0917L205.946 33.0183L205.446 32.835L205.946 32.7617L205.481 32.5783L205.982 32.505L205.481 32.3217L205.982 32.2483L205.481 32.065L205.982 31.9917L205.481 31.8083L205.982 31.735L205.481 31.5517L205.982 31.4783L205.481 31.295L205.946 31.185L205.481 31.0017L205.946 30.9283L205.446 30.745L205.946 30.6717L205.446 30.4883L205.946 30.415L205.446 30.2317L205.946 30.1583L205.446 29.975L205.946 29.9017L205.41 29.7183L205.911 29.645L205.374 29.425L205.911 29.3517L205.374 29.1683L205.911 29.095L205.338 28.9117L205.911 28.8383L205.303 28.6183L205.946 28.5817L205.267 28.325L205.946 28.2517L205.267 27.9583H205.982L205.303 27.5917L206.054 27.6283L205.338 27.1883L206.089 27.2983L205.41 26.8217L206.483 27.0417L205.732 26.0517L206.697 26.565L206.304 25.4283L207.019 26.0883L206.769 25.0617L207.377 25.8683L207.413 24.805L207.663 25.5017L207.734 24.7683L207.985 25.465L208.056 24.695L208.307 25.465L208.45 24.695L208.593 25.3917L208.771 24.695L208.914 25.3917L209.093 24.7317L209.201 25.3917L209.415 24.805L209.487 25.3917L209.701 24.8783L209.773 25.4283L209.987 24.915L210.059 25.4283L210.238 24.9883L210.309 25.5017L210.488 25.0617L210.595 25.5017L210.774 25.0983L210.881 25.575L211.06 25.135L211.132 25.6117L211.382 25.2083L211.418 25.6483L211.704 25.2817L211.74 25.7217L212.026 25.355V25.8317L212.419 25.5017L212.347 26.015L212.92 25.795L212.777 26.2717L213.349 26.0883L213.063 26.5283L213.671 26.6017L213.349 26.9317L213.921 27.0417L213.563 27.2983L214.064 27.445L213.706 27.6283L214.136 27.8117L213.778 27.9217L214.207 28.105L213.814 28.215L214.243 28.3983L213.885 28.5083L214.243 28.655L213.885 28.765L214.279 28.9483L213.921 29.0583L214.314 29.2417L213.921 29.315L214.314 29.4983L213.921 29.5717L214.314 29.755L213.957 29.8283L214.314 30.0117L213.921 30.1217L214.314 30.2683L213.921 30.3783L214.279 30.5617L213.921 30.635L214.243 30.8183L213.885 30.8917L214.243 31.075L213.885 31.1483L214.207 31.3317L213.849 31.405L214.171 31.5883L213.849 31.6617L214.136 31.845L213.814 31.9183L214.1 32.1017L213.814 32.175L214.064 32.3583L213.778 32.4317L214.064 32.615L213.778 32.6883L214.028 32.8717L213.742 32.945L213.992 33.1283L213.742 33.2017L213.992 33.385L213.742 33.4583L213.992 33.6417L213.742 33.715L213.957 33.935L213.742 34.0083L213.957 34.1917L213.742 34.265L213.957 34.4483L213.742 34.5217L213.992 34.705L213.742 34.7783L213.992 34.9617L213.742 35.035L213.992 35.2183L213.742 35.2917L214.028 35.475L213.742 35.5483L214.028 35.7317L213.778 35.805L214.064 36.025L213.778 36.0617L214.064 36.245L213.814 36.3183L214.1 36.5017L213.814 36.575L214.1 36.7217L213.849 36.795L214.136 36.9417L213.885 37.015L214.171 37.125L213.957 37.235L214.207 37.3083L214.028 37.455H214.279L214.1 37.6383L214.35 37.675L214.243 37.8583L214.565 37.7483L214.529 37.8583L214.6 37.785L214.636 38.005L214.815 37.7117L214.886 37.9683L214.958 37.7117L215.065 37.8217L215.03 37.5283L215.244 37.7117L215.137 37.4183L215.351 37.4917L215.137 37.235L215.459 37.2717L215.173 37.015H215.459L215.173 36.8317H215.494L215.173 36.6117L215.494 36.575L215.137 36.3917L215.53 36.355L215.137 36.1717L215.53 36.135L215.137 35.915L215.566 35.8783L215.137 35.6583L215.566 35.585L215.137 35.365L215.566 35.2917L215.137 35.1083L215.566 35.035L215.137 34.8517L215.566 34.7783L215.137 34.595L215.602 34.5217L215.173 34.3383L215.602 34.2283L215.173 34.045L215.602 33.9717L215.208 33.7883L215.602 33.715L215.208 33.5317L215.637 33.4583L215.244 33.275L215.637 33.165L215.244 32.9817L215.637 32.9083L215.28 32.725L215.673 32.6517L215.28 32.4683L215.673 32.395L215.316 32.2117L215.673 32.1017L215.316 31.9183L215.709 31.845L215.351 31.6617L215.709 31.5883L215.351 31.405L215.709 31.3317L215.351 31.1117L215.709 31.0383L215.351 30.855L215.709 30.7817L215.351 30.5983L215.709 30.525L215.351 30.3417L215.673 30.2317L215.351 30.0483L215.673 29.975L215.316 29.7917L215.673 29.7183L215.28 29.535L215.637 29.4617L215.244 29.2783L215.637 29.205L215.208 28.985L215.602 28.9117L215.208 28.7283L215.602 28.655L215.173 28.435L215.637 28.3617L215.173 28.105L215.637 28.0683L215.173 27.8117L215.709 27.775L215.244 27.445L215.745 27.4817L215.316 27.115L216.031 27.225L215.53 26.4183L216.245 26.7117L215.995 25.905L216.567 26.345L216.46 25.5017L216.961 26.0517L217.068 25.245L217.318 25.7217L217.39 25.1717L217.604 25.6483L217.712 25.0983L217.89 25.6117L218.033 25.0617L218.176 25.5383L218.32 25.0617L218.427 25.5017L218.606 25.025L218.713 25.5017L218.892 25.025L218.963 25.5017L219.142 25.025L219.249 25.465L219.392 25.025L219.5 25.465L219.678 25.025L219.75 25.465L219.929 25.025L220 25.465L220.179 24.9883L220.251 25.465L220.465 24.9883L220.537 25.465L220.715 24.9883L220.787 25.465L221.002 24.9883L221.037 25.465L221.288 24.9883L221.323 25.5017L221.538 25.025L221.574 25.5383L221.86 25.025V25.575L222.182 25.0617L222.146 25.6483L222.539 25.135L222.468 25.7583L222.933 25.245L222.754 25.9783L223.433 25.5017L223.076 26.1617L223.791 25.8683L223.29 26.4917L224.22 26.345L223.612 26.9317L224.506 26.9683L223.898 27.225L224.613 27.335L224.005 27.555L224.721 27.7017L224.041 27.885L224.756 28.0683L224.113 28.215L224.828 28.435L224.148 28.545L224.828 28.765L224.22 28.8383L224.864 29.0583L224.256 29.1317L224.864 29.3517L224.256 29.425L224.864 29.6083L224.256 29.6817L224.864 29.865L224.292 29.9383L224.899 30.1583L224.292 30.2317L224.899 30.415L224.292 30.4883L224.899 30.6717L224.292 30.745L224.899 30.9283L224.292 31.0017L224.864 31.185L224.292 31.2583L224.864 31.4417L224.256 31.515L224.864 31.6983L224.256 31.7717L224.864 31.955L224.22 32.065L224.828 32.2483L224.256 32.3217L224.828 32.505L224.256 32.5783L224.828 32.7617L224.256 32.835L224.792 33.0183L224.22 33.0917L224.792 33.275L224.22 33.3483L224.792 33.5317L224.22 33.605L224.756 33.7883L224.22 33.8617L224.756 34.045L224.22 34.1183L224.721 34.3017L224.184 34.375L224.721 34.5583L224.184 34.6317L224.721 34.815L224.184 34.8883L224.685 35.0717L224.148 35.145L224.649 35.3283L224.148 35.4017L224.649 35.585L224.148 35.6583L224.613 35.8417L224.113 35.915L224.613 36.0983L224.113 36.1717L224.578 36.355L224.077 36.4283L224.542 36.6117L224.077 36.685L224.506 36.8683L224.077 36.9417L224.506 37.125L224.041 37.1983L224.47 37.3817L224.041 37.455L224.435 37.6383L224.005 37.7117L224.435 37.895L224.005 37.9683L224.399 38.1517L224.005 38.225L224.399 38.4083L224.005 38.4817L224.363 38.665L223.97 38.7383L224.363 38.9217L223.97 38.995L224.363 39.1783L223.97 39.2517L224.363 39.435L223.97 39.5083L224.327 39.6917L223.97 39.765L224.327 39.9483L223.934 40.0217L224.327 40.2417L223.97 40.315L224.363 40.4983L223.97 40.6083L224.363 40.7917L223.97 40.865L224.363 41.0483L223.97 41.1583L224.363 41.3417L223.97 41.415L224.399 41.5983L224.005 41.6717L224.435 41.8917L224.005 41.965L224.435 42.185L224.005 42.2217L224.47 42.4783L223.97 42.515L224.47 42.8083H223.934L224.435 43.175L223.898 43.1383L224.399 43.505L223.791 43.4317L224.292 43.8717L223.648 43.725L224.148 44.275L223.469 43.9817L223.898 44.6783L223.183 44.2383L223.433 45.1183L222.933 44.5317L222.968 45.375L222.539 44.6783L222.468 45.595L222.11 44.8617L221.896 45.705L221.717 45.0083L221.466 45.7417L221.359 45.0817L221.145 45.705L221.037 45.1183L220.823 45.6683L220.751 45.1183L220.537 45.6683L220.465 45.1183L220.286 45.6317L220.215 45.1183L220.036 45.595L219.964 45.0817L219.786 45.5583L219.714 45.0817L219.535 45.5217L219.464 45.045L219.285 45.485L219.214 45.045L219.035 45.4483L218.963 45.0083L218.784 45.4117L218.713 45.0083L218.534 45.375L218.463 44.9717L218.284 45.375L218.212 44.9717L218.033 45.3383L217.926 44.9717L217.747 45.3383L217.676 44.935L217.497 45.3017L217.425 44.935L217.247 45.3017L217.175 44.935L216.996 45.3017L216.925 44.935L216.71 45.3017L216.639 44.935L216.46 45.3383L216.388 44.9717L216.21 45.3383L216.138 44.9717L215.959 45.3383L215.888 44.9717L215.709 45.375L215.637 44.9717L215.459 45.375L215.387 45.0083L215.208 45.4117L215.137 45.0083L214.958 45.4117L214.886 45.0083L214.708 45.4117L214.636 45.0083L214.457 45.4483L214.386 45.0083L214.207 45.4117L214.1 45.0083L213.921 45.4117L213.849 45.0083L213.671 45.4117L213.599 45.0083L213.42 45.375L213.349 44.9717L213.17 45.375L213.098 44.9717L212.92 45.3383L212.848 44.9717L212.669 45.3383L212.598 44.935L212.419 45.3017L212.347 44.935L212.169 45.3017L212.097 44.935L211.918 45.265L211.811 44.8983L211.668 45.2283L211.561 44.8983L211.382 45.2283L211.31 44.8983L211.132 45.1917L211.06 44.8617L210.881 45.1917L210.81 44.8617L210.631 45.1917L210.559 44.8617L210.381 45.1917L210.309 44.8617L210.13 45.155L210.059 44.8617L209.88 45.155L209.809 44.8617L209.63 45.155L209.558 44.8617L209.379 45.155L209.308 44.8617L209.129 45.1917L209.022 44.8617L208.843 45.1917L208.771 44.8617L208.593 45.1917L208.521 44.8617L208.342 45.1917L208.271 44.8983L208.092 45.2283L208.02 44.8983L207.842 45.2283L207.77 44.8983L207.591 45.2283L207.52 44.8983L207.341 45.265L207.27 44.8983L207.091 45.265L207.019 44.8983L206.84 45.265L206.769 44.935L206.59 45.265L206.483 44.935L206.304 45.3017L206.232 44.935L206.054 45.3017L205.982 44.935L205.803 45.3017L205.732 44.935L205.553 45.3383L205.481 44.9717L205.303 45.3383L205.231 44.9717L205.052 45.375L204.981 44.9717L204.802 45.375L204.731 44.9717L204.552 45.375L204.48 45.0083L204.301 45.4117L204.23 45.0083L204.051 45.4117L203.944 45.0083L203.765 45.4483L203.693 45.0083L203.515 45.4483L203.443 45.0083L203.264 45.4483L203.193 45.045L203.014 45.4483L202.942 45.045L202.764 45.485L202.692 45.045L202.513 45.485L202.442 45.045L202.263 45.485L202.192 45.045L202.013 45.485L201.941 45.045L201.762 45.485L201.655 45.0083L201.476 45.485L201.405 45.045L201.226 45.485L201.154 45.045L200.94 45.485L200.868 45.045L200.69 45.485L200.618 45.045L200.439 45.485L200.368 45.045L200.189 45.485L200.082 45.045L199.903 45.485L199.831 45.045L199.653 45.485L199.581 45.0083L199.366 45.485L199.259 45.0083L199.045 45.485L198.973 44.9717L198.723 45.485L198.687 44.935L198.401 45.4483L198.365 44.935L198.079 45.4117L198.043 44.8617L197.721 45.3383L197.757 44.715L197.257 45.1917L197.4 44.5683L196.827 44.935L197.042 44.5317L196.613 44.7517L196.899 44.165L196.148 44.385L196.649 43.835L195.862 43.7617L196.363 43.4683L195.755 43.3583L196.255 43.1017L195.647 42.955L196.184 42.735L195.612 42.5517L196.112 42.405L195.576 42.185L195.826 42.1117L195.576 42.0383L196.076 41.965L195.647 41.7817ZM205.338 37.1617L205.374 37.0883H205.303H205.338L205.303 37.125V37.1617L205.338 37.0883V37.1617ZM205.446 37.235V37.1617L205.41 37.125L205.446 37.1983V37.235ZM205.625 37.2717V37.235L205.517 37.1983V37.235L205.589 37.2717H205.625Z" fill="#EF9C48"/>
<path d="M227.159 40.865L227.302 40.8283L226.98 40.6083L227.195 40.535L226.837 40.3517L227.088 40.2783L226.658 40.095L226.98 40.0217L226.515 39.8383L226.98 39.765L226.515 39.5817L226.98 39.5083L226.515 39.325L226.98 39.2517L226.515 39.0683L226.98 38.995L226.515 38.8117L226.98 38.7383L226.515 38.555L226.98 38.4817L226.515 38.2983L226.98 38.225L226.515 38.0417L226.98 37.9683L226.515 37.785L226.98 37.7117L226.515 37.5283L226.98 37.455L226.551 37.2717L226.98 37.1983L226.551 37.015L227.016 36.9417L226.551 36.7583L227.016 36.685L226.587 36.5017L227.016 36.4283L226.587 36.245L227.016 36.1717L226.623 35.9883L227.016 35.915L226.623 35.7317L227.052 35.6583L226.623 35.475L227.052 35.4017L226.658 35.2183L227.052 35.145L226.658 34.9617L227.052 34.8883L226.658 34.705L227.052 34.6317L226.658 34.4483L227.052 34.375L226.658 34.1917L227.052 34.0817L226.658 33.935L227.052 33.825L226.658 33.6783L227.052 33.5683L226.658 33.4217L227.052 33.3117L226.658 33.165L227.052 33.055L226.658 32.8717L227.052 32.7983L226.623 32.615L227.016 32.5417L226.623 32.3583L227.016 32.285L226.587 32.1017L227.016 32.0283L226.551 31.845L226.98 31.7717L226.515 31.5883L226.98 31.515L226.48 31.3317L226.944 31.2583L226.444 31.075L226.909 31.0017L226.408 30.8183L226.909 30.7083L226.372 30.525L226.873 30.4517L226.337 30.2683L226.837 30.195L226.265 30.0117L226.837 29.9383L226.229 29.7183L226.801 29.645L226.194 29.4617L226.766 29.3883L226.122 29.1683L226.766 29.1317L226.086 28.9117L226.73 28.8383L226.05 28.6183L226.766 28.5817L226.015 28.325L226.766 28.2517L225.979 27.995L226.837 27.9583L225.943 27.5917H226.944L225.979 27.115L227.052 27.225L226.122 26.5283L227.195 26.8583L226.337 26.015L227.338 26.4917L226.658 25.5383L227.552 26.1983L226.98 25.135L227.803 25.9417L227.409 24.805L228.125 25.7217L227.838 24.5483L228.446 25.5383L228.339 24.3283L228.768 25.4283L228.876 24.2183L229.126 25.2817L229.305 24.1817L229.448 25.135L229.662 24.1817L229.77 25.0617L229.984 24.1817L230.056 24.9883L230.234 24.1817L230.306 25.025L230.485 24.2183L230.592 25.025L230.771 24.2183L230.842 25.025L231.021 24.255L231.093 25.025L231.271 24.2917L231.343 25.025L231.522 24.2917L231.593 25.0617L231.772 24.3283L231.844 25.0617L232.022 24.3283L232.094 25.0617L232.273 24.365L232.344 25.0983L232.559 24.365L232.63 25.2083L232.881 24.4017L232.916 25.245L233.238 24.4383V25.2817L233.596 24.475L233.524 25.355L233.954 24.5483L233.846 25.3917L234.311 24.6217L234.097 25.7583L234.991 24.8417L234.561 25.9417L235.563 25.2817L234.848 26.3083L236.206 25.905L235.205 26.785L236.564 26.7483L235.706 27.1517H236.707L235.813 27.4817L236.85 27.5917L235.92 27.8483L236.922 27.995L235.992 28.1783L236.957 28.3617L236.671 28.3983L237.315 28.655L236.779 28.1417L237.494 28.4717L236.993 27.9217L237.673 28.2517L237.172 27.7383L237.851 28.0317L237.387 27.5183L238.03 27.8117L237.601 27.2983L238.245 27.5917L237.851 27.0783L238.424 27.3717L238.102 26.8583L238.638 27.1517L238.352 26.675L238.853 26.9683L238.602 26.455L239.067 26.7483L238.888 26.2717L239.318 26.6017L239.175 26.125L239.568 26.4183L239.496 25.9783L239.818 26.2717V25.8683L240.104 26.1617L240.176 25.7583L240.426 26.0517L240.533 25.7217L240.712 25.9783L240.855 25.685L240.998 25.9417L241.141 25.685L241.284 25.905L241.463 25.685L241.571 25.905L241.749 25.7217L241.857 25.905L242.035 25.7217L242.143 25.905L242.321 25.7583L242.429 25.905L242.608 25.7583L242.715 25.905L242.894 25.795L243.001 25.905L243.18 25.795L243.287 25.9417L243.466 25.795L243.573 25.9417L243.752 25.795L243.859 25.9417L244.038 25.795L244.145 25.9417L244.36 25.795L244.431 25.9417L244.646 25.795L244.717 25.9417L244.932 25.795L245.004 25.9417L245.218 25.795L245.29 25.9417L245.504 25.8317L245.576 25.9783L245.79 25.8683L245.898 26.0517L246.327 25.9417L246.362 26.1617L246.613 26.125V26.2717H246.863L246.827 26.455H247.113L247.006 26.6383L247.149 26.7117H247.221V26.7483L247.113 26.8583L247.328 27.005L247.149 27.1883L247.399 27.4083L247.185 27.5183L247.292 27.885L247.113 27.9217L247.221 28.1783L247.006 28.215L247.113 28.4717H246.899L246.97 28.765H246.792L246.827 29.0217H246.649L246.684 29.2783H246.505L246.541 29.4983H246.398L246.434 29.7183H246.255L246.291 29.9383H246.148L246.184 30.1583H246.005L246.041 30.3783H245.898L245.933 30.5983H245.755L245.79 30.8183H245.611L245.683 31.0383H245.504L245.54 31.2583H245.361L245.397 31.4783H245.254V31.6983H245.111L245.147 31.9183H244.968L245.004 32.1383H244.86V32.3583H244.717V32.5783H244.574L244.61 32.7983H244.431L244.467 33.0183H244.324L244.36 33.275L244.217 33.2383L244.253 33.495H244.11L244.145 33.715H244.002L244.074 33.935H243.895L244.002 34.155L243.823 34.1917L243.931 34.375L243.788 34.4117L243.895 34.595L243.752 34.6317L243.859 34.815L243.716 34.8883L243.859 35.035L243.716 35.1083L243.895 35.255L243.752 35.365L243.931 35.475L243.788 35.585L244.002 35.695L243.859 35.805L244.074 35.8783L243.966 36.025L244.181 36.0983L244.074 36.245L244.288 36.3183L244.181 36.465L244.396 36.5383L244.288 36.685L244.539 36.7583L244.431 36.905L244.646 36.9417L244.574 37.125L244.789 37.1617L244.682 37.345L244.968 37.4183L244.86 37.565L245.147 37.6383L245.039 37.785L245.29 37.8583L245.182 38.005L245.433 38.0783L245.325 38.2617L245.611 38.2983L245.468 38.4817L245.755 38.5183L245.647 38.7017L245.898 38.7383L245.79 38.9217L246.076 38.9583L245.933 39.1417L246.219 39.1783L246.076 39.3617L246.398 39.3983L246.255 39.5817H246.577L246.398 39.8017H246.756L246.577 39.985H246.935L246.756 40.205H247.113L246.899 40.425L247.292 40.3883L247.078 40.6083L247.471 40.5717L247.256 40.8283L247.65 40.7917L247.435 41.0483L247.829 40.975L247.578 41.2683L248.043 41.195L247.721 41.4883L248.222 41.415L247.9 41.7083L248.401 41.6717L248.007 41.965L248.544 41.9283L248.15 42.2217H248.687L248.079 42.625L248.937 42.9183L248.222 43.175L248.866 43.615L248.115 43.5783L248.651 44.4217L247.864 44.0917L248.007 44.9717L247.578 44.495V45.3017L247.185 44.715L247.078 45.4483L246.863 44.935L246.72 45.5217L246.577 45.0083L246.434 45.5583L246.327 45.045L246.148 45.595L246.041 45.0817L245.862 45.6317L245.755 45.1183L245.576 45.6683L245.504 45.155L245.325 45.6683L245.218 45.155L245.039 45.705L244.968 45.155L244.789 45.705L244.717 45.1917L244.539 45.705L244.467 45.1917L244.253 45.705L244.217 45.1917L244.002 45.7417L243.931 45.1917L243.752 45.7417L243.68 45.1917L243.502 45.7417L243.43 45.2283L243.251 45.7783L243.18 45.2283L243.001 45.7783L242.929 45.1917L242.751 45.815L242.679 45.2283L242.465 45.815L242.393 45.2283L242.214 45.8517L242.143 45.2283L241.892 45.8517L241.857 45.1917L241.606 45.8883L241.571 45.155L241.284 45.8517V45.1183L240.927 45.8517L240.998 45.0817L240.569 45.7783L240.676 44.9717L240.212 45.705L240.39 44.8617L239.818 45.595L240.104 44.715L239.425 45.4117L239.818 44.5683L239.067 45.1917L239.496 44.385L238.71 44.935L239.246 44.2017L238.424 44.715L238.996 44.0183L238.173 44.4583L238.745 43.7983L237.923 44.2017L238.531 43.615L237.708 43.945L238.352 43.395L237.53 43.725L238.138 43.175L237.351 43.4683L237.994 42.955L237.387 43.175L237.53 43.2117H237.279L237.172 43.2483L237.208 43.2117L236.135 43.1017L237.422 43.6883L235.992 43.4683L237.243 44.1283L235.92 43.835L237.065 44.5317L235.241 44.0183L236.349 45.485L235.813 44.935L236.206 45.4483L235.92 45.1917L236.135 45.5583L235.384 44.7883L235.849 45.6683L234.74 44.5683L235.062 46.145L234.383 44.825L234.275 46.2917L233.954 45.1917L233.846 46.3283L233.596 45.2283L233.417 46.3283L233.238 45.3017L233.024 46.2917L232.881 45.3383L232.666 46.255L232.559 45.4483L232.38 46.2183L232.309 45.485L232.13 46.2183L232.058 45.485L231.915 46.1817L231.808 45.4483L231.665 46.1817L231.558 45.4483L231.379 46.145L231.307 45.4117L231.128 46.145L231.057 45.4117L230.878 46.1083L230.771 45.375L230.592 46.0717L230.521 45.375L230.342 46.035L230.27 45.3383L230.056 45.9983L229.984 45.3017L229.77 45.9617L229.734 45.3017L229.519 45.8883L229.483 45.0817L229.162 45.815L229.126 44.8983L228.625 45.6683L228.732 44.825L228.196 45.4117L228.375 44.825L227.982 45.2283L228.196 44.4217L227.445 44.7883L227.874 44.1283L227.123 44.165L227.624 43.725L226.909 43.5783L227.445 43.2483L226.873 42.9183L227.266 42.7717L226.909 42.5883L227.266 42.4783L226.98 42.295L227.302 42.185L227.052 42.0383L227.338 41.9283L227.123 41.745L227.374 41.6717L227.195 41.4883L227.409 41.415L227.266 41.2317L227.374 41.195L227.302 41.1583L227.409 41.085L227.159 40.865ZM236.063 28.4717L236.922 28.6917L236.636 28.3983L236.063 28.4717ZM236.779 28.7283L237.172 28.875L236.957 28.6917L236.779 28.7283ZM236.528 28.875L236.85 28.9483L236.6 28.7283L236.278 28.765L236.528 28.875ZM236.135 28.8017L236.349 28.8383L236.278 28.765L236.135 28.8017ZM236.993 29.095L236.922 29.0217H236.814L236.993 29.095ZM236.349 29.095L236.707 29.205L236.564 29.0583H236.278L236.349 29.095ZM236.886 29.3517L236.814 29.2783H236.743L236.886 29.3517ZM236.278 29.425L236.6 29.4983L236.457 29.315L236.171 29.3517L236.278 29.425ZM236.457 29.755L236.385 29.7183H236.314L236.385 29.755H236.457ZM236.779 41.8183L236.85 41.7817H236.636L236.779 41.8183ZM236.564 42.075L236.814 42.1117L236.957 42.0017L236.636 42.0383L236.564 42.075ZM237.172 42.185L237.315 42.075L237.029 42.1483L237.172 42.185ZM236.85 42.515L237.1 42.5883L237.458 42.295H237.422L236.85 42.515ZM236.314 42.3683L236.779 42.4783L236.993 42.3317L236.314 42.3683ZM237.458 42.6617L237.637 42.515L237.315 42.625L237.458 42.6617ZM236.814 42.7717L236.922 42.6983L236.099 42.735L237.279 43.1383L237.816 42.735L236.993 43.0283L237.387 42.6983H237.065L236.814 42.7717Z" fill="#CB525F"/>
<path d="M254.087 44.0183L254.23 43.615L253.873 43.7983L253.98 43.4317L253.658 43.615L253.765 43.2483L253.444 43.395L253.551 43.065L253.229 43.175L253.336 42.8817L253.014 42.9917L253.122 42.6983L252.8 42.7717L252.943 42.4783L252.585 42.515L252.728 42.2217H252.371L252.55 42.0017L252.192 41.965L252.406 41.745L252.085 41.7083L252.263 41.4883L251.977 41.415L252.156 41.2683L251.906 41.1583L252.085 41.0117L251.834 40.9017L252.013 40.755L251.763 40.645L251.906 40.4983L251.691 40.3883L251.834 40.2417L251.62 40.1317L251.763 39.985L251.548 39.875L251.691 39.7283L251.512 39.6183L251.656 39.4717L251.441 39.3617L251.584 39.215L251.405 39.105L251.512 38.995L251.334 38.8483L251.441 38.7383L251.298 38.5917L251.405 38.4817L251.226 38.335L251.334 38.225L251.191 38.0783L251.298 37.9683L251.119 37.8217L251.226 37.7117L251.083 37.565L251.191 37.455L251.012 37.3083L251.119 37.1983L250.976 37.0517L251.083 36.9417L250.94 36.795L251.012 36.685L250.869 36.5383L250.976 36.4283L250.833 36.2817L250.94 36.1717L250.797 36.025L250.905 35.915L250.797 35.7683L250.869 35.6583L250.762 35.475L250.869 35.4017L250.762 35.2183L250.833 35.145L250.726 34.9617L250.833 34.8883L250.726 34.705L250.833 34.595L250.762 34.4117L250.869 34.3383L250.797 34.1183L250.905 34.045L250.869 33.8617L250.94 33.7883V33.605L251.012 33.5317V33.3117L251.083 33.275V33.055L251.155 33.0183V32.7983L251.226 32.7617V32.5417L251.298 32.505V32.285L251.369 32.2483V32.065L251.441 31.9917V31.8083L251.512 31.735L251.548 31.5517L251.62 31.4783V31.295L251.691 31.2217V31.0383L251.763 30.965V30.7817L251.834 30.745V30.525L251.942 30.4883L251.906 30.2683L252.013 30.2317V30.0117L252.12 29.975L252.085 29.7183H252.192L252.156 29.4617H252.299L252.263 29.205H252.406L252.335 28.9483H252.514L252.442 28.6917H252.621L252.55 28.3983L252.764 28.4717L252.693 28.1417L252.943 28.215L252.871 27.8483L253.122 27.995V27.555L253.372 27.7383V27.335L253.587 27.555V27.1517L253.801 27.3717L253.837 26.9683L254.016 27.225L254.051 26.785L254.266 27.0783V26.6017L254.481 26.9317L254.516 26.455L254.731 26.8217V26.3083L254.945 26.675L254.981 26.1617L255.196 26.565L255.232 26.015L255.446 26.455V25.905L255.696 26.345V25.795L255.947 26.2717V25.685L256.161 26.1983L256.197 25.6117L256.412 26.0883L256.447 25.5383L256.662 26.015L256.698 25.465L256.948 25.9783L256.984 25.4283L257.198 25.905L257.234 25.355L257.449 25.8317L257.484 25.3183L257.699 25.795L257.735 25.2817L257.949 25.7583L258.021 25.245L258.2 25.685L258.271 25.2083L258.45 25.6483L258.522 25.1717L258.7 25.6117L258.808 25.135L258.986 25.575L259.058 25.135L259.237 25.5383L259.308 25.0983L259.487 25.5017L259.594 25.0617L259.737 25.465L259.845 25.025L259.988 25.4283L260.131 25.025L260.274 25.3917L260.381 24.9883L260.524 25.355L260.667 24.9517L260.774 25.3183L260.917 24.9517L261.061 25.3183L261.239 24.915L261.347 25.3183L261.561 24.915L261.633 25.2817L261.847 24.915L261.883 25.2817L262.098 24.915L262.169 25.2817L262.384 24.915L262.419 25.2817L262.634 24.915L262.67 25.3183L262.92 24.915L262.956 25.3183L263.17 24.9517L263.206 25.355L263.456 24.9517V25.355L263.707 24.9883L263.743 25.3917L263.993 24.9883V25.465L264.315 25.0617L264.279 25.5017L264.565 25.0983V25.575L264.851 25.1717L264.815 25.6117L265.137 25.245L265.101 25.685L265.423 25.3183L265.352 25.7583L265.674 25.3917L265.638 25.8317L265.96 25.465L265.888 25.9417L266.246 25.5383L266.139 26.015L266.532 25.6117L266.425 26.125L266.818 25.685L266.675 26.1983L267.104 25.795L266.925 26.3083L267.39 25.905L267.211 26.4183L267.676 26.015L267.462 26.565L267.962 26.125L267.712 26.675L268.213 26.2717L267.962 26.8217L268.463 26.4183L268.213 26.9683L268.713 26.565L268.427 27.115L268.964 26.7483L268.642 27.2983L269.214 26.9317L268.856 27.4817L269.428 27.1517L269.071 27.665L269.643 27.3717L269.25 27.9217L269.858 27.6283L269.393 28.215L270.108 27.995L269.607 28.4717L270.287 28.325L269.786 28.7283L270.43 28.6183L269.929 28.985L270.501 28.9117L270.036 29.2417L270.609 29.205L270.144 29.4983H270.68L270.215 29.755L270.716 29.7917L270.322 30.0117L270.787 30.0483L270.394 30.2683L270.823 30.3417L270.43 30.5617L270.895 30.5983L270.501 30.8183L270.93 30.855L270.573 31.075L271.002 31.1483L270.644 31.3317L271.073 31.405L270.716 31.5883L271.109 31.6617L270.787 31.845L271.181 31.9183L270.859 32.1017L271.252 32.175L270.93 32.3583L271.324 32.4317L270.966 32.615L271.431 32.6883L271.038 32.835L271.503 32.945L271.109 33.0917L271.574 33.2017L271.181 33.3483L271.646 33.4583L271.252 33.605L271.717 33.715L271.324 33.8983L271.789 33.9717L271.36 34.155L271.86 34.265L271.431 34.4117L271.932 34.5217L271.467 34.6683L271.967 34.7783L271.503 34.925L272.003 35.0717L271.538 35.2183L272.039 35.365L271.538 35.475L272.039 35.6583L271.538 35.7683L272.039 35.9883L271.503 36.0617L272.003 36.355L271.467 36.3917L271.896 36.7217H271.431L271.824 37.015L271.36 36.9783L271.717 37.2717H271.288L271.646 37.565L271.217 37.5283L271.538 37.8217L271.145 37.785L271.431 38.0783L271.038 38.0417L271.324 38.335L270.966 38.2983L271.252 38.5917L270.895 38.555L271.145 38.8483L270.787 38.8117L271.038 39.105L270.716 39.0683L270.966 39.3617L270.609 39.325L270.859 39.6183L270.537 39.5817L270.787 39.875L270.43 39.8383L270.68 40.1317L270.358 40.095L270.609 40.3883L270.251 40.3517L270.537 40.6817L270.179 40.6083L270.43 40.9383L270.072 40.865L270.358 41.195L269.965 41.1217L270.251 41.4883L269.858 41.3783L270.144 41.745L269.75 41.635L270.036 42.0383L269.607 41.8917L269.893 42.295L269.464 42.1117L269.75 42.5883L269.285 42.3683L269.572 42.8817L269.107 42.5883L269.321 43.175L268.892 42.845L269.071 43.4317L268.678 43.1017L268.821 43.6517L268.463 43.285L268.57 43.8717L268.213 43.4683L268.32 44.055L267.998 43.6517L268.07 44.2017L267.748 43.7983L267.819 44.385L267.497 43.945L267.569 44.5317L267.283 44.055L267.319 44.6417L267.033 44.2017L267.068 44.7883L266.782 44.3117V44.8983L266.532 44.4217V45.0083L266.282 44.5317V45.1183L266.031 44.6417V45.2283L265.781 44.715V45.3383L265.531 44.825L265.495 45.4117L265.28 44.8983L265.245 45.485L265.03 44.9717L264.994 45.5583L264.78 45.045L264.744 45.6317L264.529 45.1917V45.705L264.243 45.1183L264.207 45.7783L263.921 45.155L263.814 45.8517L263.635 45.265L263.492 45.8883L263.349 45.3383L263.206 45.8883L263.099 45.375L262.92 45.8883L262.813 45.375L262.634 45.8883L262.562 45.375L262.384 45.8883L262.276 45.375L262.098 45.8883L262.026 45.375L261.811 45.8883L261.74 45.375L261.561 45.8517L261.49 45.375L261.311 45.8517L261.239 45.375L261.025 45.8517L260.953 45.375L260.774 45.8517L260.703 45.375L260.488 45.8517L260.453 45.375L260.238 45.8883L260.167 45.375L259.952 45.8883L259.916 45.375L259.702 45.8883L259.666 45.3383L259.416 45.8883L259.38 45.3383L259.165 45.8883L259.129 45.3383L258.879 45.8883V45.3017L258.629 45.8517L258.593 45.3017L258.343 45.8517V45.265L258.092 45.815V45.2283L257.806 45.7417V45.1917L257.556 45.705V45.1183L257.306 45.6317V45.0817L257.02 45.595L257.055 45.0083L256.769 45.485V44.935L256.483 45.4117L256.519 44.8617L256.233 45.3017L256.269 44.7883L255.983 45.1917L256.018 44.6783L255.696 45.0817L255.768 44.5683L255.41 44.9717L255.482 44.4583L255.16 44.825L255.232 44.3117L254.874 44.6417L254.981 44.1283L254.552 44.4583L254.695 44.0183L254.338 44.2383V44.165L254.302 44.2017L254.445 43.7983L254.087 44.0183ZM261.275 35.255L261.955 35.1817L261.311 34.9983L261.955 34.925L261.347 34.7783L261.99 34.6683L261.382 34.5217L261.99 34.4117L261.382 34.3017L261.955 34.1917L261.382 34.0817L261.919 33.9717L261.311 33.8617L261.847 33.715L261.275 33.6783L261.776 33.5317L261.239 33.495L261.704 33.3117H261.204L261.704 33.0917L261.132 33.1283L261.561 32.9083L261.096 32.9817L261.382 32.7983L261.061 32.8717L261.204 32.7983L261.061 32.835L261.168 32.725L261.061 32.7983L261.204 32.5783V32.5417L260.989 32.725L261.275 32.175L261.311 32.065L260.989 32.5417L260.953 32.615V32.5783L260.882 32.6883V32.4683L260.739 32.1017V32.615V32.6517L260.667 32.5417L260.453 32.3583L260.631 32.6883L260.596 32.6517V32.6883L260.023 32.4683L260.453 33.0183L260.023 32.9083L260.381 33.2017L259.988 33.1283L260.345 33.3483L259.916 33.3117L260.274 33.5317H259.845L260.238 33.7517H259.809L260.202 33.9717H259.737L260.202 34.1917L259.702 34.2283L260.167 34.4117L259.666 34.485L260.131 34.6683L259.666 34.705L260.095 34.925L259.63 34.9983L260.059 35.1817L259.594 35.255L260.059 35.4383L259.594 35.5483L260.023 35.7317L259.559 35.805L259.988 35.9883L259.559 36.0983L259.988 36.245L259.559 36.355L259.988 36.5017L259.559 36.6117L259.988 36.7583L259.594 36.905L259.988 37.015L259.594 37.1617L259.988 37.3083L259.666 37.4183L260.023 37.5283L259.737 37.675L260.059 37.7483L259.809 37.895H260.131L259.916 38.0783L260.202 38.0417L259.988 38.225L260.274 38.1883L260.238 38.2617L260.31 38.225L260.131 38.6283L260.631 38.4083L260.596 38.555L260.703 38.4817V38.775L260.917 38.445L260.989 38.775L261.132 38.445L261.168 38.5183V38.3717L261.454 38.775L261.49 38.2617L261.454 38.1517L261.704 38.2983L261.525 38.005L261.776 38.115L261.561 37.8583L261.883 37.9317L261.597 37.675L261.919 37.7483L261.633 37.4917L261.955 37.5283L261.597 37.3083H261.99L261.597 37.0883H262.026L261.561 36.8683H262.026L261.525 36.6483L262.026 36.6117L261.49 36.3917L262.026 36.355L261.418 36.135L262.026 36.0983L261.382 35.8783L261.99 35.8417L261.311 35.6217L261.525 35.585L261.239 35.5483L261.99 35.475L261.275 35.255Z" fill="#EF9C48"/>
</svg>
